<?xml version="1.0" encoding="UTF-8"?>
<!DOCTYPE svg PUBLIC "-//W3C//DTD SVG 1.1//EN" "http://www.w3.org/Graphics/SVG/1.1/DTD/svg11.dtd">
<!-- Creator: CorelDRAW 2019 (64 Bit) -->
<svg xmlns="http://www.w3.org/2000/svg" xml:space="preserve" width="200px" height="171px" version="1.1" style="shape-rendering:geometricPrecision; text-rendering:geometricPrecision; image-rendering:optimizeQuality; fill-rule:evenodd; clip-rule:evenodd"
viewBox="0 0 200 170.48"
 xmlns:xlink="http://www.w3.org/1999/xlink">
 <defs>
  <style type="text/css">
   <![CDATA[
    .fil1 {fill:#009ADD;fill-rule:nonzero}
    .fil0 {fill:#F4891F;fill-rule:nonzero}
   ]]>
  </style>
 </defs>
 <g id="Camada_x0020_1">
  <metadata id="CorelCorpID_0Corel-Layer"/>
  <g id="_1616368693920">
   <path class="fil0" d="M138.17 10.63l-4.05 0c-4.12,0 -8.15,3.16 -8.15,8.56l0 6.78 20.35 20.35c0,-2.87 0,-24.35 0,-27.54 0,-4.49 -3.66,-8.15 -8.15,-8.15z"/>
   <path class="fil0" d="M99.23 142.68c-5.51,0 -9.97,4.47 -9.97,9.98 0,5.51 4.46,9.98 9.97,9.98 5.51,0 9.98,-4.47 9.98,-9.98 0,-5.51 -4.47,-9.98 -9.98,-9.98z"/>
   <g>
    <polygon class="fil0" points="97.59,70.72 79.68,70.72 79.68,88.63 97.59,88.63 "/>
    <polygon class="fil0" points="120.32,88.63 120.32,70.72 102.41,70.72 102.41,88.63 "/>
    <polygon class="fil0" points="79.68,93.46 79.68,111.36 97.59,111.36 97.59,93.46 "/>
    <polygon class="fil0" points="120.32,93.46 102.41,93.46 102.41,111.36 120.32,111.36 "/>
   </g>
   <g>
    <g>
     <path class="fil1" d="M197.63 97.63c-0.59,-0.59 -95.7,-95.7 -97.63,-97.63 -3,3 -96.33,96.33 -97.62,97.62 -3.17,3.17 -3.17,8.36 0,11.52l2.87 2.87c3.17,3.17 8.35,3.17 11.52,0l8.42 -8.41c0,5.2 0,41.83 0,47.71 0,10.55 8.62,19.17 19.17,19.17l111.28 0c10.55,0 19.17,-8.62 19.17,-19.17 0,-5.88 0,-42.52 0,-47.71l8.42 8.41c3.17,3.17 8.35,3.17 11.52,0l2.87 -2.87c3.17,-3.16 3.17,-8.34 0.01,-11.51zm-98.4 69.64l0 0c-8.06,0 -14.6,-6.54 -14.6,-14.61 0,-8.06 6.54,-14.6 14.6,-14.6 8.07,0 14.61,6.54 14.61,14.6 0,8.07 -6.54,14.61 -14.61,14.61zm54.1 -52.61l0 0c0,10.54 -8.63,19.17 -19.17,19.17l-68.32 0c-10.54,0 -19.17,-8.63 -19.17,-19.17 0,-3.24 0,-29.3 0,-32.55 3.96,-3.96 51.05,-51.05 53.33,-53.32 1.89,1.89 51.07,51.07 53.33,53.32 0,3.25 0,29.31 0,32.55z"/>
    </g>
   </g>
  </g>
 </g>
</svg>
