<?xml version="1.0" encoding="UTF-8"?>
<!DOCTYPE svg PUBLIC "-//W3C//DTD SVG 1.1//EN" "http://www.w3.org/Graphics/SVG/1.1/DTD/svg11.dtd">
<!-- Creator: CorelDRAW 2019 (64 Bit) -->
<svg xmlns="http://www.w3.org/2000/svg" xml:space="preserve" width="108.03mm" height="108.03mm" version="1.1" style="shape-rendering:geometricPrecision; text-rendering:geometricPrecision; image-rendering:optimizeQuality; fill-rule:evenodd; clip-rule:evenodd"
viewBox="0 0 5079.08 5079.08"
 xmlns:xlink="http://www.w3.org/1999/xlink">
 <defs>
  <style type="text/css">
   <![CDATA[
    .fil1 {fill:#EF5048;fill-rule:nonzero}
    .fil0 {fill:#FF6454;fill-rule:nonzero}
    .fil2 {fill:white;fill-rule:nonzero}
   ]]>
  </style>
 </defs>
 <g id="__x0023_Layer_x0020_1">
  <metadata id="CorelCorpID_0Corel-Layer"/>
  <g id="_2699114163520">
   <g>
    <g>
     <path class="fil0" d="M5079.08 2539.54c0,1402.55 -1136.99,2539.54 -2539.54,2539.54 -1402.55,0 -2539.54,-1136.99 -2539.54,-2539.54 0,-1402.55 1136.99,-2539.54 2539.54,-2539.54 1402.54,0 2539.54,1136.99 2539.54,2539.54z"/>
    </g>
    <g>
     <g>
      <path class="fil1" d="M2539.54 0l0 5079.08c1402.54,0 2539.54,-1136.99 2539.54,-2539.54 0,-1402.55 -1136.99,-2539.54 -2539.54,-2539.54z"/>
     </g>
    </g>
   </g>
   <g>
    <path class="fil2" d="M3650.79 3586.93c60.83,0 113.53,-20.07 158.32,-59.72l-766.57 -766.6c-18.39,13.16 -36.21,25.98 -53.07,38.15 -57.35,42.27 -103.93,75.25 -139.67,98.87 -35.74,23.71 -83.3,47.84 -142.67,72.48 -59.43,24.69 -114.77,36.99 -166.11,36.99l-1.51 0 -1.49 0c-51.37,0 -106.71,-12.29 -166.11,-36.99 -59.4,-24.64 -106.98,-48.78 -142.68,-72.48 -35.74,-23.62 -82.28,-56.6 -139.68,-98.87 -15.99,-11.73 -33.73,-24.59 -52.92,-38.37l-766.72 766.82c44.81,39.66 97.53,59.72 158.36,59.72l2222.52 0z"/>
    <path class="fil2" d="M1370.35 2277.86c-57.37,-38.23 -108.24,-82.03 -152.53,-131.38l0 1166.34 675.66 -675.66c-135.18,-94.38 -309.33,-214 -523.13,-359.31z"/>
    <path class="fil2" d="M3710.26 2277.86c-205.68,139.21 -380.46,259.04 -524.42,359.58l675.39 675.4 0 -1166.35c-43.29,48.35 -93.61,92.12 -150.96,131.38z"/>
    <path class="fil2" d="M3650.79 1492.15l-2222.52 0c-77.54,0 -137.15,26.18 -178.92,78.49 -41.8,52.34 -62.64,117.8 -62.64,196.3 0,63.4 27.68,132.1 83.02,206.12 55.35,73.97 114.25,132.09 176.66,174.35 34.22,24.18 137.41,95.92 309.54,215.18 92.93,64.38 173.73,120.51 243.2,168.96 59.18,41.25 110.23,76.97 152.39,106.61 4.82,3.39 12.43,8.83 22.54,16.05 10.87,7.81 24.65,17.73 41.64,30.01 32.71,23.66 59.9,42.78 81.53,57.39 21.62,14.62 47.81,30.95 78.53,49.07 30.71,18.09 59.66,31.72 86.83,40.78 27.18,9.04 52.34,13.58 75.48,13.58l1.52 0 1.49 0c23.15,0 48.32,-4.55 75.49,-13.58 27.18,-9.06 56.1,-22.66 86.82,-40.78 30.7,-18.12 56.86,-34.48 78.54,-49.07 21.64,-14.61 48.83,-33.73 81.52,-57.39 16.96,-12.27 30.73,-22.19 41.63,-29.97 10.09,-7.25 17.69,-12.66 22.56,-16.08 32.84,-22.85 84.01,-58.42 152.79,-106.19 125.19,-86.98 309.54,-214.99 553.84,-384.56 73.49,-51.31 134.86,-113.24 184.2,-185.69 49.25,-72.45 73.92,-148.45 73.92,-227.98 0,-66.43 -23.94,-123.29 -71.7,-170.64 -47.85,-47.3 -104.48,-70.96 -169.9,-70.96z"/>
   </g>
  </g>
 </g>
</svg>
