<?xml version="1.0" encoding="UTF-8"?>
<!DOCTYPE svg PUBLIC "-//W3C//DTD SVG 1.1//EN" "http://www.w3.org/Graphics/SVG/1.1/DTD/svg11.dtd">
<!-- Creator: CorelDRAW 2019 (64 Bit) -->
<svg xmlns="http://www.w3.org/2000/svg" xml:space="preserve" width="447px" height="500px" version="1.1" style="shape-rendering:geometricPrecision; text-rendering:geometricPrecision; image-rendering:optimizeQuality; fill-rule:evenodd; clip-rule:evenodd"
viewBox="0 0 447 499.32"
 xmlns:xlink="http://www.w3.org/1999/xlink">
 <defs>
  <style type="text/css">
   <![CDATA[
    .fil29 {fill:#FEFEFE;fill-rule:nonzero}
    .fil11 {fill:#00B0A7;fill-rule:nonzero}
    .fil7 {fill:#00B2A4;fill-rule:nonzero}
    .fil12 {fill:#087EC1;fill-rule:nonzero}
    .fil5 {fill:#2D324C;fill-rule:nonzero}
    .fil0 {fill:#3AAFE4;fill-rule:nonzero}
    .fil9 {fill:#3D94C5;fill-rule:nonzero}
    .fil16 {fill:#5C80A4;fill-rule:nonzero}
    .fil13 {fill:#69738E;fill-rule:nonzero}
    .fil14 {fill:#7CB2D4;fill-rule:nonzero}
    .fil31 {fill:#81C9EA;fill-rule:nonzero}
    .fil10 {fill:#83AECC;fill-rule:nonzero}
    .fil1 {fill:#99DBF8;fill-rule:nonzero}
    .fil6 {fill:#9FD3ED;fill-rule:nonzero}
    .fil20 {fill:#A3C7D9;fill-rule:nonzero}
    .fil30 {fill:#ACDBF0;fill-rule:nonzero}
    .fil8 {fill:#C1C8D2;fill-rule:nonzero}
    .fil24 {fill:#D1E1EC;fill-rule:nonzero}
    .fil17 {fill:#D9D3D3;fill-rule:nonzero}
    .fil23 {fill:#DAF1FC;fill-rule:nonzero}
    .fil25 {fill:#E9EAEC;fill-rule:nonzero}
    .fil22 {fill:#F0688D;fill-rule:nonzero}
    .fil2 {fill:#F16867;fill-rule:nonzero}
    .fil18 {fill:#F4891F;fill-rule:nonzero}
    .fil4 {fill:#F48E8E;fill-rule:nonzero}
    .fil21 {fill:#F8A579;fill-rule:nonzero}
    .fil15 {fill:#FAAC41;fill-rule:nonzero}
    .fil19 {fill:#FAB286;fill-rule:nonzero}
    .fil27 {fill:#FDDDCD;fill-rule:nonzero}
    .fil26 {fill:#FDE2D2;fill-rule:nonzero}
    .fil28 {fill:#FEF3EC;fill-rule:nonzero}
    .fil3 {fill:#FEFEFE;fill-rule:nonzero}
   ]]>
  </style>
 </defs>
 <g id="Camada_x0020_1">
  <metadata id="CorelCorpID_0Corel-Layer"/>
  <g id="_2240521666640">
   <path class="fil0" d="M434.98 217.49c0,120.12 -97.37,217.49 -217.49,217.49 -120.12,0 -217.49,-97.37 -217.49,-217.49 0,-120.12 97.37,-217.49 217.49,-217.49 120.12,0 217.49,97.37 217.49,217.49z"/>
   <path class="fil1" d="M384.12 241.44l49.54 0c0.04,-0.38 0.09,-0.75 0.13,-1.13l-49.67 0 0 1.13z"/>
   <path class="fil1" d="M1.32 241.44l35.28 0 0 -1.13 -35.41 0c0.04,0.38 0.09,0.75 0.13,1.13z"/>
   <path class="fil1" d="M5.08 264.34l424.82 0c0.09,-0.37 0.17,-0.75 0.25,-1.12l-425.32 0c0.08,0.37 0.16,0.75 0.25,1.12l0 0z"/>
   <path class="fil1" d="M6.37 269.87l422.24 0c0.1,-0.37 0.19,-0.75 0.28,-1.13l-422.8 0c0.09,0.38 0.18,0.76 0.28,1.13z"/>
   <path class="fil1" d="M33.23 333.07l368.52 0c0.23,-0.38 0.47,-0.75 0.7,-1.13l-369.92 0c0.23,0.38 0.47,0.75 0.7,1.13z"/>
   <path class="fil1" d="M419.27 298.76c-0.15,0.38 -0.3,0.75 -0.46,1.13l-2.48 0 0 -1.13 2.94 0zm-403.1 1.13c-0.16,-0.38 -0.31,-0.75 -0.46,-1.13l1.36 0 0 1.13 -0.9 0zm14.67 0l13.76 0 0 -1.13 -13.76 0 0 1.13zm27.53 0l13.77 0 0 -1.13 -13.77 0 0 1.13zm27.54 0l13.77 0 0 -1.13 -13.77 0 0 1.13zm27.53 0l13.77 0 0 -1.13 -13.77 0 0 1.13zm27.54 0l13.77 0 0 -1.13 -13.77 0 0 1.13zm27.53 0l13.77 0 0 -1.13 -13.77 0 0 1.13zm27.54 0l13.77 0 0 -1.13 -13.77 0 0 1.13zm27.53 0l13.77 0 0 -1.13 -13.77 0 0 1.13zm27.54 0l13.77 0 0 -1.13 -13.77 0 0 1.13zm27.53 0l13.77 0 0 -1.13 -13.77 0 0 1.13zm27.54 0l13.77 0 0 -1.13 -13.77 0 0 1.13zm27.54 0l13.76 0 0 -1.13 -13.76 0 0 1.13zm27.53 0l13.77 0 0 -1.13 -13.77 0 0 1.13zm27.54 0l13.76 0 0 -1.13 -13.76 0 0 1.13z"/>
   <path class="fil1" d="M230.32 130.55l0.56 0 0 -5.91 5.93 0 0 5.35 -6.49 0 0 0.56 0.56 0 -0.56 0 0 0.57 7.62 0 0 -7.6 -8.18 0 0 7.6 0.56 0 0 -0.57zm-7.7 0l0.56 0 0 -5.91 6.12 0 0 5.35 -6.68 0 0 0.56 0.56 0 -0.56 0 0 0.57 7.8 0 0 -7.6 -8.36 0 0 7.6 0.56 0 0 -0.57zm7.24 -22.59l-0.56 0 0 7.12 -6.12 0 0 -6.55 6.68 0 0 -0.57 -0.56 0 0.56 0 0 -0.56 -7.8 0 0 8.81 8.36 0 0 -8.81 -0.56 0 0 0.56zm0 15.73l0 -0.57 -6.68 0 0 -6.52 6.12 0 0 7.09 0.56 0 0 -0.57 0 0.57 0.56 0 0 -8.21 -8.36 0 0 8.77 8.36 0 0 -0.56 -0.56 0zm0.46 -7.65l0 0.56 6.49 0 0 6.52 -5.93 0 0 -7.08 -0.56 0 0 0.56 0 -0.56 -0.56 0 0 8.21 8.18 0 0 -8.77 -8.18 0 0 0.56 0.56 0zm7.06 -0.39l0 -0.57 -6.5 0 0 -6.55 5.93 0 0 7.12 0.57 0 0 -0.57 0 0.57 0.56 0 0 -8.25 -8.18 0 0 8.81 8.18 0 0 -0.56 -0.56 0zm0.46 -8.08l0 -0.56 -16.25 0 0 24.5 8.27 0 0 -0.56 -0.56 0 0 0.7 1.58 0 0 -0.14 7.52 0 0 -24.5 -0.56 0 0 0.56 -0.56 0 0 22.81 -7.52 0 0 0.7 0.56 0 0 -0.56 -0.46 0 0 0.56 0.56 0 0 -0.7 -7.7 0 0 -22.24 15.12 0 0 -0.57 -0.56 0 0.56 0z"/>
   <path class="fil1" d="M254.03 130.55l0.57 0 0 -5.91 5.93 0 0 5.35 -6.5 0 0 0.56 0.57 0 -0.57 0 0 0.57 7.62 0 0 -7.6 -8.18 0 0 7.6 0.56 0 0 -0.57zm-7.7 0l0.57 0 0 -5.91 6.11 0 0 5.35 -6.68 0 0 0.56 0.57 0 -0.57 0 0 0.57 7.8 0 0 -7.6 -8.36 0 0 7.6 0.56 0 0 -0.57zm7.24 -22.59l-0.56 0 0 7.12 -6.11 0 0 -6.55 6.67 0 0 -0.57 -0.56 0 0.56 0 0 -0.56 -7.8 0 0 8.81 8.36 0 0 -8.81 -0.56 0 0 0.56zm0 15.73l0 -0.57 -6.67 0 0 -6.52 6.11 0 0 7.09 0.56 0 0 -0.57 0 0.57 0.56 0 0 -8.21 -8.36 0 0 8.77 8.36 0 0 -0.56 -0.56 0zm0.46 -7.65l0 0.56 6.5 0 0 6.52 -5.93 0 0 -7.08 -0.57 0 0 0.56 0 -0.56 -0.56 0 0 8.21 8.18 0 0 -8.77 -8.18 0 0 0.56 0.56 0zm7.06 -0.39l0 -0.57 -6.49 0 0 -6.55 5.93 0 0 7.12 0.56 0 0 -0.57 0 0.57 0.56 0 0 -8.25 -8.18 0 0 8.81 8.18 0 0 -0.56 -0.56 0zm0.46 -8.08l0 -0.56 -16.24 0 0 24.5 8.26 0 0 -0.56 -0.56 0 0 0.7 1.59 0 0 -0.14 7.52 0 0 -24.5 -0.57 0 0 0.56 -0.56 0 0 22.81 -7.52 0 0 0.7 0.56 0 0 -0.56 -0.46 0 0 0.56 0.56 0 0 -0.7 -7.7 0 0 -22.24 15.12 0 0 -0.57 -0.56 0 0.56 0z"/>
   <path class="fil1" d="M277.75 130.55l0.56 0 0 -5.91 5.93 0 0 5.35 -6.49 0 0 0.56 0.56 0 -0.56 0 0 0.57 7.62 0 0 -7.6 -8.19 0 0 7.6 0.57 0 0 -0.57zm-7.71 0l0.57 0 0 -5.91 6.11 0 0 5.35 -6.68 0 0 0.56 0.57 0 -0.57 0 0 0.57 7.81 0 0 -7.6 -8.37 0 0 7.6 0.56 0 0 -0.57zm7.24 -22.59l-0.56 0 0 7.12 -6.11 0 0 -6.55 6.67 0 0 -0.57 -0.56 0 0.56 0 0 -0.56 -7.8 0 0 8.81 8.37 0 0 -8.81 -0.57 0 0 0.56zm0 15.73l0 -0.57 -6.67 0 0 -6.52 6.11 0 0 7.09 0.56 0 0 -0.57 0 0.57 0.57 0 0 -8.21 -8.37 0 0 8.77 8.37 0 0 -0.56 -0.57 0zm0.47 -7.65l0 0.56 6.49 0 0 6.52 -5.93 0 0 -7.08 -0.56 0 0 0.56 0 -0.56 -0.57 0 0 8.21 8.19 0 0 -8.77 -8.19 0 0 0.56 0.57 0zm7.05 -0.39l0 -0.57 -6.49 0 0 -6.55 5.93 0 0 7.12 0.56 0 0 -0.57 0 0.57 0.57 0 0 -8.25 -8.19 0 0 8.81 8.19 0 0 -0.56 -0.57 0zm0.47 -8.08l0 -0.56 -16.25 0 0 24.5 8.26 0 0 -0.56 -0.56 0 0 0.7 1.59 0 0 -0.14 7.52 0 0 -24.5 -0.56 0 0 0.56 -0.57 0 0 22.81 -7.52 0 0 0.7 0.57 0 0 -0.56 -0.47 0 0 0.56 0.57 0 0 -0.7 -7.7 0 0 -22.24 15.12 0 0 -0.57 -0.57 0 0.57 0z"/>
   <path class="fil1" d="M301.46 130.55l0.56 0 0 -5.91 5.93 0 0 5.35 -6.49 0 0 0.56 0.56 0 -0.56 0 0 0.57 7.62 0 0 -7.6 -8.19 0 0 7.6 0.57 0 0 -0.57zm-7.7 0l0.56 0 0 -5.91 6.11 0 0 5.35 -6.67 0 0 0.56 0.56 0 -0.56 0 0 0.57 7.8 0 0 -7.6 -8.37 0 0 7.6 0.57 0 0 -0.57zm7.24 -22.59l-0.57 0 0 7.12 -6.11 0 0 -6.55 6.68 0 0 -0.57 -0.57 0 0.57 0 0 -0.56 -7.81 0 0 8.81 8.37 0 0 -8.81 -0.56 0 0 0.56zm0 15.73l0 -0.57 -6.68 0 0 -6.52 6.11 0 0 7.09 0.57 0 0 -0.57 0 0.57 0.56 0 0 -8.21 -8.37 0 0 8.77 8.37 0 0 -0.56 -0.56 0zm0.46 -7.65l0 0.56 6.49 0 0 6.52 -5.93 0 0 -7.08 -0.56 0 0 0.56 0 -0.56 -0.57 0 0 8.21 8.19 0 0 -8.77 -8.19 0 0 0.56 0.57 0zm7.06 -0.39l0 -0.57 -6.5 0 0 -6.55 5.93 0 0 7.12 0.57 0 0 -0.57 0 0.57 0.56 0 0 -8.25 -8.19 0 0 8.81 8.19 0 0 -0.56 -0.56 0zm0.46 -8.08l0 -0.56 -16.25 0 0 24.5 8.27 0 0 -0.56 -0.57 0 0 0.7 1.59 0 0 -0.14 7.52 0 0 -24.5 -0.56 0 0 0.56 -0.57 0 0 22.81 -7.52 0 0 0.7 0.57 0 0 -0.56 -0.46 0 0 0.56 0.56 0 0 -0.7 -7.7 0 0 -22.24 15.12 0 0 -0.57 -0.57 0 0.57 0z"/>
   <polygon class="fil1" points="317.5,247.13 317.5,246.57 212.94,246.57 212.94,96.52 316.93,96.52 316.93,247.13 317.5,247.13 317.5,246.57 317.5,247.13 318.06,247.13 318.06,95.4 211.82,95.4 211.82,247.7 318.06,247.7 318.06,247.13 "/>
   <path class="fil1" d="M315.07 95.59l0 -0.57 -108.25 0c-0.22,0 -0.4,-0.18 -0.4,-0.39 0,-0.22 0.18,-0.4 0.4,-0.4l108.25 0c0.21,0 0.39,0.18 0.4,0.4 -0.01,0.21 -0.19,0.39 -0.4,0.39l0 1.13c0.84,0 1.52,-0.68 1.52,-1.52 0,-0.85 -0.68,-1.53 -1.52,-1.53l-108.25 0c-0.85,0 -1.53,0.68 -1.53,1.53 0,0.84 0.68,1.52 1.53,1.52l108.25 0 0 -0.56z"/>
   <path class="fil1" d="M37.08 164.73l0 -0.56 -7.46 0 48.28 -55.28 48.28 55.28 -7.47 0 0.12 0.67c0.02,0.1 0.03,0.21 0.03,0.32l0 0.14 -0.04 0.6 11.17 0 -51.44 -58.89 -0.22 -0.26 -0.43 -0.49 -52.08 59.64 11.94 0 -0.12 -0.67 -0.02 -0.21 0.02 -0.2 0.09 -0.65 -0.65 0 0 0.56 -0.56 -0.08c-0.02,0.12 -0.03,0.24 -0.03,0.37 0,0.13 0.01,0.27 0.04,0.41l0.55 -0.1 0 -0.56 -8.78 0 50.03 -57.28 -0.43 -0.37 -0.42 0.37 0.23 0.26 49.79 57.02 -8.08 0 0 0.56 0.56 0.04 0.01 -0.21c0,-0.17 -0.01,-0.35 -0.05,-0.53l-0.55 0.1 0 0.57 9.27 0 -50.76 -58.12 -50.76 58.12 9.94 0 0 -0.57 -0.56 -0.08 0.56 0.08z"/>
   <polygon class="fil1" points="119.09,164.6 119.52,164.24 77.9,114.64 35.5,165.16 36.47,165.16 36.47,248.28 119.33,248.28 119.33,164.6 118.77,164.6 118.77,165.16 120.3,165.16 119.52,164.24 119.09,164.6 119.09,164.04 118.2,164.04 118.2,247.15 37.6,247.15 37.6,164.04 36.71,164.04 36.71,164.6 37.14,164.96 77.9,116.4 118.66,164.96 119.09,164.6 119.09,164.04 "/>
   <polygon class="fil1" points="94.74,247.49 94.74,246.93 62.91,246.93 62.91,189.57 94.18,189.57 94.18,247.49 94.74,247.49 94.74,246.93 94.74,247.49 95.31,247.49 95.31,188.44 61.79,188.44 61.79,248.06 95.31,248.06 95.31,247.49 "/>
   <path class="fil1" d="M56.64 180.2l0.57 0 0 -5.91 5.93 0 0 5.35 -6.5 0 0 0.56 0.57 0 -0.57 0 0 0.57 7.63 0 0 -7.6 -8.19 0 0 7.6 0.56 0 0 -0.57zm-7.7 0l0.57 0 0 -5.91 6.11 0 0 5.35 -6.68 0 0 0.56 0.57 0 -0.57 0 0 0.57 7.81 0 0 -7.6 -8.37 0 0 7.6 0.56 0 0 -0.57zm7.24 -22.58l-0.56 0 0 7.11 -6.11 0 0 -6.55 6.67 0 0 -0.56 -0.56 0 0.56 0 0 -0.57 -7.8 0 0 8.81 8.37 0 0 -8.81 -0.57 0 0 0.57zm0 15.72l0 -0.57 -6.67 0 0 -6.52 6.11 0 0 7.09 0.56 0 0 -0.57 0 0.57 0.57 0 0 -8.21 -8.37 0 0 8.77 8.37 0 0 -0.56 -0.57 0zm0.46 -7.65l0 0.56 6.5 0 0 6.52 -5.93 0 0 -7.08 -0.57 0 0 0.56 0 -0.56 -0.56 0 0 8.21 8.19 0 0 -8.77 -8.19 0 0 0.56 0.56 0zm7.06 -0.39l0 -0.57 -6.49 0 0 -6.55 5.93 0 0 7.12 0.56 0 0 -0.57 0 0.57 0.57 0 0 -8.25 -8.19 0 0 8.81 8.19 0 0 -0.56 -0.57 0zm0.46 -8.08l0 -0.56 -16.24 0 0 24.5 8.26 0 0 -0.56 -0.56 0 0 0.7 1.59 0 0 -0.14 7.52 0 0 -24.5 -0.57 0 0 0.56 -0.56 0 0 22.81 -7.52 0 0 0.71 0.56 0 0 -0.57 -0.46 0 0 0.57 0.57 0 0 -0.71 -7.71 0 0 -22.24 15.12 0 0 -0.57 -0.56 0 0.56 0z"/>
   <path class="fil1" d="M77.87 180.2l0.56 0 0 -5.91 5.93 0 0 5.35 -6.49 0 0 0.56 0.56 0 -0.56 0 0 0.57 7.62 0 0 -7.6 -8.19 0 0 7.6 0.57 0 0 -0.57zm-7.7 0l0.56 0 0 -5.91 6.11 0 0 5.35 -6.67 0 0 0.56 0.56 0 -0.56 0 0 0.57 7.8 0 0 -7.6 -8.37 0 0 7.6 0.57 0 0 -0.57zm7.24 -22.58l-0.57 0 0 7.11 -6.11 0 0 -6.55 6.68 0 0 -0.56 -0.57 0 0.57 0 0 -0.57 -7.81 0 0 8.81 8.37 0 0 -8.81 -0.56 0 0 0.57zm0 15.72l0 -0.57 -6.68 0 0 -6.52 6.11 0 0 7.09 0.57 0 0 -0.57 0 0.57 0.56 0 0 -8.21 -8.37 0 0 8.77 8.37 0 0 -0.56 -0.56 0zm0.46 -7.65l0 0.56 6.49 0 0 6.52 -5.93 0 0 -7.08 -0.56 0 0 0.56 0 -0.56 -0.57 0 0 8.21 8.19 0 0 -8.77 -8.19 0 0 0.56 0.57 0zm7.06 -0.39l0 -0.57 -6.5 0 0 -6.55 5.93 0 0 7.12 0.57 0 0 -0.57 0 0.57 0.56 0 0 -8.25 -8.19 0 0 8.81 8.19 0 0 -0.56 -0.56 0zm0.46 -8.08l0 -0.56 -16.25 0 0 24.5 8.27 0 0 -0.56 -0.57 0 0 0.7 1.59 0 0 -0.14 7.52 0 0 -24.5 -0.56 0 0 0.56 -0.57 0 0 22.81 -7.52 0 0 0.71 0.57 0 0 -0.57 -0.46 0 0 0.57 0.56 0 0 -0.71 -7.7 0 0 -22.24 15.12 0 0 -0.57 -0.57 0 0.57 0z"/>
   <path class="fil1" d="M99.09 180.2l0.57 0 0 -5.91 5.93 0 0 5.35 -6.5 0 0 0.56 0.57 0 -0.57 0 0 0.57 7.63 0 0 -7.6 -8.19 0 0 7.6 0.56 0 0 -0.57zm-7.7 0l0.57 0 0 -5.91 6.11 0 0 5.35 -6.68 0 0 0.56 0.57 0 -0.57 0 0 0.57 7.81 0 0 -7.6 -8.37 0 0 7.6 0.56 0 0 -0.57zm7.24 -22.58l-0.56 0 0 7.11 -6.11 0 0 -6.55 6.67 0 0 -0.56 -0.56 0 0.56 0 0 -0.57 -7.8 0 0 8.81 8.37 0 0 -8.81 -0.57 0 0 0.57zm0 15.72l0 -0.57 -6.67 0 0 -6.52 6.11 0 0 7.09 0.56 0 0 -0.57 0 0.57 0.57 0 0 -8.21 -8.37 0 0 8.77 8.37 0 0 -0.56 -0.57 0zm0.46 -7.65l0 0.56 6.5 0 0 6.52 -5.93 0 0 -7.08 -0.57 0 0 0.56 0 -0.56 -0.56 0 0 8.21 8.19 0 0 -8.77 -8.19 0 0 0.56 0.56 0zm7.06 -0.39l0 -0.57 -6.49 0 0 -6.55 5.93 0 0 7.12 0.56 0 0 -0.57 0 0.57 0.57 0 0 -8.25 -8.19 0 0 8.81 8.19 0 0 -0.56 -0.57 0zm0.46 -8.08l0 -0.56 -16.24 0 0 24.5 8.26 0 0 -0.56 -0.56 0 0 0.7 1.59 0 0 -0.14 7.52 0 0 -24.5 -0.57 0 0 0.56 -0.56 0 0 22.81 -7.52 0 0 0.71 0.56 0 0 -0.57 -0.46 0 0 0.57 0.57 0 0 -0.71 -7.71 0 0 -22.24 15.12 0 0 -0.57 -0.56 0 0.56 0z"/>
   <path class="fil1" d="M79.35 150.29l0.56 0 0 -8.03 8.03 0 0 -0.56 -0.57 -0.02c-0.14,4.37 -3.67,7.9 -8.04,8.04l0.02 0.57 0.56 0 -0.56 0 0.01 0.56c4.97,-0.17 8.97,-4.17 9.14,-9.13l0.02 -0.59 -9.74 0 0 9.74 0.58 -0.02 -0.01 -0.56zm-9.2 -8.59l0 0.56 8.03 0 0 8.03 0.56 0 0.02 -0.57c-4.37,-0.14 -7.9,-3.67 -8.04,-8.04l-0.57 0.02 0 0.56 0 -0.56 -0.56 0.02c0.17,4.96 4.17,8.96 9.14,9.13l0.58 0.02 0 -9.74 -9.74 0 0.02 0.59 0.56 -0.02zm8.59 -9.19l-0.56 0 0 8.02 -8.03 0 0 0.57 0.57 0.02c0.14,-4.38 3.67,-7.9 8.04,-8.05l-0.02 -0.56 -0.56 0 0.56 0 -0.01 -0.57c-4.97,0.17 -8.97,4.17 -9.14,9.14l-0.02 0.58 9.74 0 0 -9.74 -0.58 0.02 0.01 0.57zm9.2 8.59l0 -0.57 -8.03 0 0 -8.02 -0.56 0 -0.02 0.56c4.37,0.15 7.9,3.67 8.04,8.05l0.57 -0.02 0 -0.57 0 0.57 0.56 -0.02c-0.17,-4.97 -4.17,-8.97 -9.14,-9.14l-0.58 -0.02 0 9.74 9.74 0 -0.02 -0.58 -0.56 0.02zm-8.89 -9.21l0 -0.56c-5.56,0 -10.07,4.51 -10.07,10.07 0,5.55 4.51,10.07 10.07,10.07 5.55,0 10.06,-4.52 10.06,-10.07 0,-5.56 -4.51,-10.07 -10.06,-10.07l0 1.12c2.46,0 4.69,1.01 6.32,2.63 1.62,1.62 2.62,3.85 2.62,6.32 0,2.46 -1,4.7 -2.62,6.32 -1.63,1.62 -3.86,2.62 -6.32,2.62 -2.47,0 -4.7,-1 -6.33,-2.62 -1.62,-1.62 -2.62,-3.86 -2.62,-6.32 0,-2.47 1,-4.7 2.62,-6.32 1.63,-1.62 3.86,-2.63 6.33,-2.63l0 -0.56z"/>
   <path class="fil1" d="M66.05 217.81l0 0.57 24.77 0 0 -25.84 -25.34 0 0 25.84 0.57 0 0 -0.57 0.56 0 0 -24.15 23.08 0 0 23.59 -23.64 0 0 0.56 0.56 0 -0.56 0zm24.8 0.6l0 -0.56 -24.84 0 0 -24.79 24.28 0 0 25.35 0.56 0 0 -0.56 0 0.56 0.57 0 0 -26.48 -26.54 0 0 27.05 26.54 0 0 -0.57 -0.57 0z"/>
   <path class="fil2" d="M304.8 150.2l-94.63 0c-2.29,0 -4.16,-1.88 -4.16,-4.17l0 -0.05c0,-2.29 1.87,-4.17 4.16,-4.17l94.63 0c2.29,0 4.16,1.88 4.16,4.17l0 0.05c0,2.29 -1.87,4.17 -4.16,4.17z"/>
   <polygon class="fil3" points="181.33,161.72 200.2,161.72 200.2,97.8 181.33,97.8 "/>
   <path class="fil2" d="M201.77 99.9l-22.01 0c-1.15,0 -2.09,-0.94 -2.09,-2.1 0,-1.15 0.94,-2.09 2.09,-2.09l22.01 0c1.15,0 2.09,0.94 2.09,2.09 0,1.16 -0.94,2.1 -2.09,2.1z"/>
   <polygon class="fil2" points="99.35,151.27 157.79,84.36 216.23,151.27 "/>
   <polygon class="fil3" points="110.2,247.56 205.38,247.56 205.38,150.62 110.2,150.62 "/>
   <polygon class="fil3" points="184.63,247.56 304.72,247.56 304.72,150.62 184.63,150.62 "/>
   <polygon class="fil3" points="109.83,150.77 157.79,93.61 205.76,150.77 "/>
   <polygon class="fil2" points="139.68,247.3 177.41,247.3 177.41,179.19 139.68,179.19 "/>
   <polygon class="fil4" points="144.69,209.83 155.58,209.83 155.58,184.04 144.69,184.04 "/>
   <polygon class="fil4" points="160.17,209.83 171.06,209.83 171.06,184.04 160.17,184.04 "/>
   <polygon class="fil4" points="144.69,240.22 155.58,240.22 155.58,214.42 144.69,214.42 "/>
   <polygon class="fil4" points="160.17,240.22 171.06,240.22 171.06,214.42 160.17,214.42 "/>
   <polygon class="fil5" points="145.97,160.67 169.02,160.67 169.02,119.81 145.97,119.81 "/>
   <polygon class="fil0" points="147.65,157.7 167.34,157.7 167.34,122.78 147.65,122.78 "/>
   <path class="fil6" d="M147.65 143.83l0 -2.74c5.5,-6.15 11.06,-12.24 16.66,-18.31l1.9 0c-6.24,6.97 -12.34,14.07 -18.56,21.05z"/>
   <path class="fil6" d="M147.65 154.55l0 -3.4c6.66,-7.35 13.11,-14.88 19.69,-22.29l0 4.92c-6.4,7.08 -12.9,14.07 -19.69,20.77z"/>
   <polygon class="fil5" points="156.25,159.95 157.51,159.95 157.51,120.61 156.25,120.61 "/>
   <polygon class="fil5" points="146.42,133.83 168.77,133.83 168.77,132.25 146.42,132.25 "/>
   <polygon class="fil5" points="146.42,147.05 168.77,147.05 168.77,145.47 146.42,145.47 "/>
   <polygon class="fil5" points="212.31,222.56 235.36,222.56 235.36,181.7 212.31,181.7 "/>
   <polygon class="fil0" points="213.99,219.59 233.68,219.59 233.68,184.67 213.99,184.67 "/>
   <path class="fil6" d="M220.14 198.75l0 -2.61c0.13,-0.14 0.26,-0.28 0.39,-0.43l2.27 0c-0.88,1.02 -1.77,2.03 -2.66,3.04zm4.04 -4.61l-2.22 0c2.88,-3.17 5.78,-6.32 8.69,-9.47l1.9 0c-2.81,3.14 -5.59,6.3 -8.37,9.47z"/>
   <path class="fil6" d="M224.31 205.85l-3.9 0c2.97,-3.37 5.92,-6.76 8.89,-10.14l4.34 0c-3.08,3.41 -6.18,6.79 -9.33,10.14z"/>
   <path class="fil6" d="M233.68 194.14l-3 0c1,-1.13 2,-2.27 3,-3.4l0 3.4z"/>
   <polygon class="fil5" points="222.58,221.84 223.84,221.84 223.84,182.49 222.58,182.49 "/>
   <polygon class="fil5" points="212.76,195.71 235.11,195.71 235.11,194.14 212.76,194.14 "/>
   <polygon class="fil5" points="212.76,208.94 235.11,208.94 235.11,207.36 212.76,207.36 "/>
   <polygon class="fil5" points="243.26,222.56 266.31,222.56 266.31,181.7 243.26,181.7 "/>
   <polygon class="fil0" points="244.93,219.59 264.63,219.59 264.63,184.67 244.93,184.67 "/>
   <path class="fil6" d="M244.93 205.72l0 -2.75c2.86,-3.18 5.72,-6.35 8.6,-9.51l0 2.5c-2.86,3.26 -5.71,6.52 -8.6,9.76zm9.86 -11.19l0 -2.45c2.26,-2.48 4.53,-4.94 6.81,-7.41l1.89 0c-2.92,3.27 -5.81,6.56 -8.7,9.86z"/>
   <path class="fil6" d="M253.53 205.79l-2.12 0c0.71,-0.81 1.41,-1.61 2.12,-2.41l0 2.41z"/>
   <path class="fil6" d="M255.31 205.79l-0.52 0 0 -3.85c3.28,-3.74 6.54,-7.48 9.84,-11.2l0 4.93c-3.08,3.4 -6.18,6.78 -9.32,10.12z"/>
   <polygon class="fil5" points="253.53,221.84 254.79,221.84 254.79,182.49 253.53,182.49 "/>
   <polygon class="fil5" points="243.7,195.71 266.05,195.71 266.05,194.14 243.7,194.14 "/>
   <polygon class="fil5" points="243.7,208.94 266.05,208.94 266.05,207.36 243.7,207.36 "/>
   <path class="fil7" d="M135.61 159.41c-1.95,-1 -2.36,-4.07 -0.74,-5.54 1.62,-1.47 4.65,-0.76 5.44,1.28 -0.28,-2.2 -0.35,-4.7 1.17,-6.31 1.52,-1.62 5.05,-0.92 4.95,1.29 -1.11,-2.39 0.92,-5.6 3.56,-5.63 2.63,-0.02 4.72,3.15 3.66,5.56 0.18,-2.15 2.98,-3.44 4.9,-2.46 1.91,0.98 2.61,3.62 1.76,5.6 0.52,-1.74 2.7,-2.75 4.36,-2.03 1.67,0.72 2.42,3.01 1.51,4.57 1.64,-2.55 6.52,-1.15 6.55,1.88 0.5,-2.31 4.54,-1.53 5.05,0.79 0.51,2.31 -1.22,4.5 -3.04,6.01l-39.15 0 0.02 -5.01z"/>
   <path class="fil7" d="M262.06 245.95c-1.95,-0.99 -2.36,-4.06 -0.74,-5.53 1.62,-1.47 4.65,-0.76 5.44,1.28 -0.28,-2.2 -0.34,-4.7 1.17,-6.31 1.52,-1.62 5.05,-0.92 4.95,1.29 -1.11,-2.39 0.92,-5.6 3.56,-5.63 2.63,-0.02 4.72,3.15 3.66,5.56 0.18,-2.15 2.98,-3.44 4.89,-2.46 1.92,0.98 2.63,3.62 1.77,5.6 0.52,-1.74 2.7,-2.75 4.36,-2.03 1.67,0.72 2.42,3.01 1.51,4.57 1.64,-2.55 6.52,-1.15 6.55,1.88 0.5,-2.31 4.54,-1.53 5.05,0.79 0.51,2.31 -1.22,4.5 -3.04,6.01l-39.15 0 0.02 -5.02z"/>
   <polygon class="fil5" points="130.47,168.16 185.13,168.16 185.13,158.61 130.47,158.61 "/>
   <polygon class="fil8" points="212.31,205.85 205.76,205.85 205.76,150.77 220.14,150.77 220.14,181.7 212.31,181.7 "/>
   <polygon class="fil5" points="213.99,205.85 212.31,205.85 212.31,181.7 220.14,181.7 220.14,184.67 213.99,184.67 213.99,194.14 212.76,194.14 212.76,195.71 213.99,195.71 "/>
   <path class="fil9" d="M220.14 205.85l-6.15 0 0 -10.14 6.15 0 0 0.43c-2.06,2.27 -4.11,4.55 -6.15,6.83l0 2.75c2.06,-2.31 4.11,-4.64 6.15,-6.97l0 7.1zm0 -11.71l-6.15 0 0 -9.47 6.15 0 0 9.47z"/>
   <path class="fil10" d="M213.99 205.72l0 -2.75c2.04,-2.28 4.09,-4.56 6.15,-6.83l0 2.61c-2.04,2.33 -4.09,4.66 -6.15,6.97z"/>
   <polygon class="fil5" points="220.14,195.71 212.76,195.71 212.76,194.14 220.14,194.14 "/>
   <polygon class="fil9" points="109.97,164.59 110.21,164.59 110.21,159.47 109.97,159.47 "/>
   <polygon class="fil8" points="110.2,164.59 118.51,164.59 118.51,159.47 110.2,159.47 "/>
   <polygon class="fil9" points="109.97,181.67 110.21,181.67 110.21,176.55 109.97,176.55 "/>
   <polygon class="fil8" points="110.2,181.67 118.51,181.67 118.51,176.55 110.2,176.55 "/>
   <polygon class="fil9" points="109.97,198.75 110.21,198.75 110.21,193.63 109.97,193.63 "/>
   <polygon class="fil8" points="110.2,198.75 118.51,198.75 118.51,193.63 110.2,193.63 "/>
   <polygon class="fil9" points="109.97,215.84 110.21,215.84 110.21,210.71 109.97,210.71 "/>
   <polygon class="fil8" points="110.2,215.84 118.51,215.84 118.51,210.71 110.2,210.71 "/>
   <polygon class="fil9" points="109.97,232.92 110.21,232.92 110.21,227.79 109.97,227.79 "/>
   <polygon class="fil8" points="110.2,232.92 118.51,232.92 118.51,227.79 110.2,227.79 "/>
   <polygon class="fil8" points="196.23,164.59 204.77,164.59 204.77,159.47 196.23,159.47 "/>
   <polygon class="fil8" points="196.23,181.67 204.77,181.67 204.77,176.55 196.23,176.55 "/>
   <polygon class="fil8" points="196.23,198.75 204.77,198.75 204.77,193.63 196.23,193.63 "/>
   <polygon class="fil8" points="295.3,164.59 303.84,164.59 303.84,159.47 295.3,159.47 "/>
   <polygon class="fil8" points="295.3,181.67 303.84,181.67 303.84,176.55 295.3,176.55 "/>
   <polygon class="fil8" points="297.25,198.75 303.84,198.75 303.84,193.63 297.25,193.63 "/>
   <polygon class="fil5" points="274.2,222.56 297.25,222.56 297.25,181.7 274.2,181.7 "/>
   <polygon class="fil0" points="275.88,219.59 295.57,219.59 295.57,184.67 275.88,184.67 "/>
   <path class="fil6" d="M275.88 205.72l0 -2.75c5.5,-6.14 11.06,-12.24 16.66,-18.3l1.9 0c-6.24,6.97 -12.34,14.07 -18.56,21.05z"/>
   <path class="fil6" d="M286.26 205.79l-3.91 0c4.42,-5.01 8.79,-10.05 13.22,-15.05l0 4.93c-3.07,3.4 -6.17,6.78 -9.31,10.12z"/>
   <polygon class="fil5" points="284.48,221.84 285.74,221.84 285.74,182.49 284.48,182.49 "/>
   <polygon class="fil5" points="274.65,195.71 297,195.71 297,194.14 274.65,194.14 "/>
   <polygon class="fil5" points="274.65,208.94 297,208.94 297,207.36 274.65,207.36 "/>
   <polygon class="fil1" points="384.16,246.4 384.16,245.84 318.54,245.84 318.54,81.87 383.6,81.87 383.6,246.4 384.16,246.4 384.16,245.84 384.16,246.4 384.73,246.4 384.73,80.74 317.41,80.74 317.41,246.96 384.73,246.96 384.73,246.4 "/>
   <path class="fil1" d="M345.5 110.74l-8.94 0 0 -20.6 8.94 0 0 20.6zm-19.57 -20.6l9.96 0 0 20.6 -9.96 0 0 -20.6zm-0.67 -0.72l0 22.04 20.91 0 0 -22.04 -20.91 0z"/>
   <path class="fil1" d="M375.19 110.74l-8.94 0 0 -20.6 8.94 0 0 20.6zm-19.57 -20.6l9.95 0 0 20.6 -9.95 0 0 -20.6zm-0.67 -0.72l0 22.04 20.91 0 0 -22.04 -20.91 0z"/>
   <path class="fil1" d="M345.5 142.44l-8.94 0 0 -20.59 8.94 0 0 20.59zm-19.57 -20.59l9.96 0 0 20.59 -9.96 0 0 -20.59zm-0.67 -0.73l0 22.05 20.91 0 0 -22.05 -20.91 0z"/>
   <path class="fil1" d="M375.19 142.44l-8.94 0 0 -20.59 8.94 0 0 20.59zm-19.57 -20.59l9.95 0 0 20.59 -9.95 0 0 -20.59zm-0.67 -0.73l0 22.05 20.91 0 0 -22.05 -20.91 0z"/>
   <path class="fil1" d="M345.5 174.15l-8.94 0 0 -20.59 8.94 0 0 20.59zm-19.57 -20.59l9.96 0 0 20.59 -9.96 0 0 -20.59zm-0.67 -0.73l0 22.05 20.91 0 0 -22.05 -20.91 0z"/>
   <path class="fil1" d="M375.19 174.15l-8.94 0 0 -20.59 8.94 0 0 20.59zm-19.57 -20.59l9.95 0 0 20.59 -9.95 0 0 -20.59zm-0.67 -0.73l0 22.05 20.91 0 0 -22.05 -20.91 0z"/>
   <path class="fil1" d="M345.5 205.86l-8.94 0 0 -20.6 8.94 0 0 20.6zm-19.57 -20.6l9.96 0 0 20.6 -9.96 0 0 -20.6zm-0.67 -0.72l0 22.04 20.91 0 0 -22.04 -20.91 0z"/>
   <path class="fil1" d="M375.19 205.86l-8.94 0 0 -20.6 8.94 0 0 20.6zm-19.57 -20.6l9.95 0 0 20.6 -9.95 0 0 -20.6zm-0.67 -0.72l0 22.04 20.91 0 0 -22.04 -20.91 0z"/>
   <path class="fil1" d="M345.5 237.56l-8.94 0 0 -20.59 8.94 0 0 20.59zm-19.57 -20.59l9.96 0 0 20.59 -9.96 0 0 -20.59zm-0.67 -0.73l0 22.05 20.91 0 0 -22.05 -20.91 0z"/>
   <path class="fil1" d="M375.19 237.56l-8.94 0 0 -20.59 8.94 0 0 20.59zm-19.57 -20.59l9.95 0 0 20.59 -9.95 0 0 -20.59zm-0.67 -0.73l0 22.05 20.91 0 0 -22.05 -20.91 0z"/>
   <path class="fil7" d="M191.15 399.24c-4.35,0 -8.43,1.12 -11.98,3.08 -2.38,-17.63 -16.62,-31.49 -34.43,-33.28 0.05,-0.63 0.08,-1.27 0.08,-1.91 0,-13.68 -11.09,-24.77 -24.77,-24.77 -7.67,0 -14.52,3.49 -19.07,8.97 -6.04,-3.91 -13.24,-6.19 -20.98,-6.19 -11.36,0 -21.57,4.9 -28.65,12.69 39.07,46.21 97.06,75.89 162.03,77.1 1.62,-3.3 2.53,-7 2.53,-10.93 0,-13.68 -11.08,-24.76 -24.76,-24.76l0 0z"/>
   <path class="fil7" d="M266.79 399.24c4.35,0 8.43,1.12 11.98,3.08 2.38,-17.63 16.62,-31.49 34.43,-33.28 -0.05,-0.63 -0.08,-1.27 -0.08,-1.91 0,-13.68 11.09,-24.77 24.77,-24.77 7.67,0 14.53,3.49 19.07,8.97 6.05,-3.91 13.24,-6.19 20.98,-6.19 4.86,0 9.51,0.9 13.79,2.53 -34.7,46.37 -87.47,78.41 -147.86,85.72 -1.19,-2.9 -1.84,-6.07 -1.84,-9.39 0,-13.68 11.08,-24.76 24.76,-24.76l0 0z"/>
   <path class="fil11" d="M184.42 432.48l-0.1 -0.01c-1.77,-0.27 -3.53,-0.56 -5.28,-0.88l-0.11 -0.02c-0.87,-0.15 -1.73,-0.33 -2.59,-0.49 1.39,-2.31 3.04,-4.67 5.01,-7.03 2.53,-3.03 5.2,-6.26 7.8,-9.72l0 18.81c-1.58,-0.2 -3.16,-0.42 -4.73,-0.66zm-68.53 -22.66c-0.69,-0.36 -1.38,-0.72 -2.06,-1.08l-0.01 -0.01c-1.53,-0.83 -3.05,-1.68 -4.56,-2.55l-0.06 -0.03c-1.5,-0.87 -2.99,-1.75 -4.46,-2.64l-0.04 -0.03c-14.94,-9.07 -28.7,-19.9 -40.99,-32.19l-0.02 -0.02c-2.45,-2.45 -4.83,-4.95 -7.16,-7.51l-0.06 -0.07c-0.16,-0.17 -0.31,-0.35 -0.46,-0.52 5.73,-3.37 12.55,-5.32 19.86,-5.32 7.38,0 14.25,2 20.03,5.43 4.33,-4.81 10.88,-7.87 18.2,-7.87 5.61,0 10.77,1.8 14.82,4.8 -4.86,15.78 -9.68,33.37 -13.03,49.61z"/>
   <path class="fil11" d="M338.9 397.96l0 -42.53c7.26,0.25 13.72,3.25 18.06,7.85 6.05,-3.43 13.24,-5.43 20.98,-5.43 1.83,0 3.63,0.11 5.4,0.33 -0.46,0.54 -0.91,1.08 -1.37,1.62l-0.05 0.05c-1.13,1.3 -2.27,2.59 -3.42,3.86l-0.03 0.03c-1.16,1.27 -2.32,2.52 -3.5,3.76l-0.09 0.09c-1.18,1.24 -2.37,2.46 -3.58,3.67l-0.05 0.05c-1.2,1.2 -2.42,2.39 -3.65,3.56l-0.11 0.1c-1.22,1.17 -2.46,2.33 -3.72,3.47l-0.11 0.1c-1.25,1.13 -2.51,2.25 -3.78,3.35l-0.11 0.09c-1.27,1.11 -2.56,2.2 -3.87,3.28l-0.14 0.12c-1.31,1.07 -2.62,2.14 -3.96,3.18l-0.07 0.06c-1.33,1.05 -2.68,2.08 -4.03,3.09l-0.16 0.12c-1.36,1.01 -2.73,2.02 -4.12,3l-0.07 0.05c-1.4,1 -2.8,1.97 -4.23,2.93l-0.06 0.05 -0.16 0.1z"/>
   <path class="fil12" d="M406.98 218.94c-4.31,0 -8.63,-1.65 -11.92,-4.94 -6.37,-6.38 -6.55,-16.58 -0.57,-23.2 -0.75,-1.68 -1.17,-3.54 -1.17,-5.5 0,-4.39 2.09,-8.29 5.32,-10.79 -0.4,-1.01 -0.62,-2.11 -0.62,-3.25 0,-4.95 4.01,-8.97 8.96,-8.97 4.95,0 8.96,4.02 8.96,8.97 0,1.14 -0.22,2.24 -0.61,3.25 3.22,2.5 5.31,6.4 5.31,10.79 0,1.96 -0.42,3.82 -1.16,5.5 5.98,6.62 5.8,16.82 -0.58,23.2 -3.29,3.29 -7.6,4.94 -11.92,4.94z"/>
   <path class="fil1" d="M414.27 186.83c-0.23,-0.16 -0.56,-0.11 -0.73,0.12l-5.3 7.29 0 -14.79c0,-0.29 -0.23,-0.52 -0.52,-0.52 -0.29,0 -0.52,0.23 -0.52,0.52l0 25.72 -5.3 -7.3c-0.17,-0.23 -0.5,-0.28 -0.73,-0.11 -0.23,0.17 -0.28,0.49 -0.11,0.72l6.14 8.45 0 32.61c0,0.29 0.23,0.52 0.52,0.52 0.29,0 0.52,-0.23 0.52,-0.52l0 -43.53 6.14 -8.45c0.17,-0.23 0.12,-0.56 -0.11,-0.73z"/>
   <path class="fil12" d="M19.9 223.67c-3.19,0 -6.38,-1.21 -8.81,-3.65 -4.72,-4.71 -4.85,-12.26 -0.43,-17.15 -0.55,-1.24 -0.86,-2.62 -0.86,-4.06 0,-3.26 1.54,-6.14 3.93,-7.99 -0.29,-0.74 -0.46,-1.55 -0.46,-2.4 0,-3.66 2.97,-6.63 6.63,-6.63 3.66,0 6.62,2.97 6.62,6.63 0,0.85 -0.16,1.66 -0.45,2.4 2.38,1.85 3.93,4.73 3.93,7.99 0,1.44 -0.31,2.82 -0.86,4.06 4.42,4.89 4.29,12.44 -0.43,17.15 -2.43,2.44 -5.62,3.65 -8.81,3.65z"/>
   <path class="fil1" d="M25.28 199.94c-0.17,-0.13 -0.41,-0.09 -0.53,0.08l-3.92 5.4 0 -10.94c0,-0.21 -0.17,-0.39 -0.39,-0.39 -0.21,0 -0.38,0.18 -0.38,0.39l0 19.01 -3.92 -5.39c-0.13,-0.17 -0.37,-0.21 -0.54,-0.08 -0.17,0.12 -0.21,0.36 -0.08,0.53l4.54 6.25 0 24.11c0,0.21 0.17,0.38 0.38,0.38 0.22,0 0.39,-0.17 0.39,-0.38l0 -32.19 4.54 -6.25c0.12,-0.17 0.09,-0.41 -0.09,-0.53z"/>
   <path class="fil5" d="M326.62 465.32l-125.19 0c-6.75,0 -12.28,-5.53 -12.28,-12.28l0 -234.91c0,-6.76 5.53,-12.28 12.28,-12.28l125.19 0c6.75,0 12.28,5.52 12.28,12.28l0 234.91c0,6.75 -5.53,12.28 -12.28,12.28z"/>
   <path class="fil1" d="M321.17 456.81l-114.29 0c-6.24,0 -11.35,-5.11 -11.35,-11.35l0 -219.75c0,-6.25 5.11,-11.36 11.35,-11.36l114.29 0c6.24,0 11.35,5.11 11.35,11.36l0 219.75c0,6.24 -5.11,11.35 -11.35,11.35z"/>
   <path class="fil5" d="M294.68 221.93l-61.31 0c-4.44,0 -8.07,-3.64 -8.07,-8.07 0,-4.44 3.63,-8.07 8.07,-8.07l61.31 0c4.44,0 8.07,3.63 8.07,8.07 0,4.43 -3.63,8.07 -8.07,8.07z"/>
   <path class="fil5" d="M339.7 269.81l0 0c-1.44,0 -2.63,-1.18 -2.63,-2.63l0 -28.89c0,-1.45 1.19,-2.63 2.63,-2.63 1.45,0 2.63,1.18 2.63,2.63l0 28.89c0,1.45 -1.18,2.63 -2.63,2.63z"/>
   <path class="fil5" d="M339.7 308.56l0 0c-1.44,0 -2.63,-1.18 -2.63,-2.63l0 -28.9c0,-1.44 1.19,-2.62 2.63,-2.62 1.45,0 2.63,1.18 2.63,2.62l0 28.9c0,1.45 -1.18,2.63 -2.63,2.63z"/>
   <path class="fil13" d="M278.78 215.79l-27.25 0c-0.81,0 -1.48,-0.66 -1.48,-1.48 0,-0.81 0.67,-1.48 1.48,-1.48l27.25 0c0.82,0 1.48,0.67 1.48,1.48 0,0.82 -0.66,1.48 -1.48,1.48z"/>
   <path class="fil2" d="M312.78 266.74l-45.26 0c-1.09,0 -1.99,-0.89 -1.99,-1.99l0 -0.02c0,-1.1 0.9,-2 1.99,-2l45.26 0c1.09,0 1.99,0.9 1.99,2l0 0.02c0,1.1 -0.9,1.99 -1.99,1.99z"/>
   <polygon class="fil3" points="253.73,272.26 262.75,272.26 262.75,241.69 253.73,241.69 "/>
   <path class="fil2" d="M263.5 242.69l-10.52 0c-0.55,0 -1,-0.45 -1,-1 0,-0.55 0.45,-1 1,-1l10.52 0c0.55,0 1,0.45 1,1 0,0.55 -0.45,1 -1,1z"/>
   <polygon class="fil2" points="214.52,267.26 242.47,235.26 270.42,267.26 "/>
   <polygon class="fil3" points="219.71,313.31 265.23,313.31 265.23,266.95 219.71,266.95 "/>
   <polygon class="fil3" points="255.31,313.31 312.74,313.31 312.74,266.95 255.31,266.95 "/>
   <polygon class="fil3" points="219.53,267.02 242.47,239.68 265.41,267.02 "/>
   <polygon class="fil2" points="233.81,313.18 251.85,313.18 251.85,280.61 233.81,280.61 "/>
   <polygon class="fil4" points="236.2,295.27 241.41,295.27 241.41,282.93 236.2,282.93 "/>
   <polygon class="fil4" points="243.61,295.27 248.82,295.27 248.82,282.93 243.61,282.93 "/>
   <polygon class="fil4" points="236.2,309.8 241.41,309.8 241.41,297.46 236.2,297.46 "/>
   <polygon class="fil4" points="243.61,309.8 248.82,309.8 248.82,297.46 243.61,297.46 "/>
   <polygon class="fil5" points="236.82,271.76 247.84,271.76 247.84,252.21 236.82,252.21 "/>
   <polygon class="fil0" points="237.62,270.33 247.04,270.33 247.04,253.64 237.62,253.64 "/>
   <path class="fil6" d="M237.62 263.7l0 -1.31c2.63,-2.94 5.29,-5.86 7.97,-8.75l0.91 0c-2.99,3.33 -5.9,6.72 -8.88,10.06z"/>
   <path class="fil6" d="M237.62 268.83l0 -1.63c3.18,-3.51 6.27,-7.12 9.42,-10.66l0 2.36c-3.06,3.38 -6.17,6.72 -9.42,9.93z"/>
   <polygon class="fil5" points="241.73,271.41 242.33,271.41 242.33,252.59 241.73,252.59 "/>
   <polygon class="fil5" points="237.03,258.92 247.72,258.92 247.72,258.16 237.03,258.16 "/>
   <polygon class="fil5" points="237.03,265.24 247.72,265.24 247.72,264.49 237.03,264.49 "/>
   <polygon class="fil5" points="268.54,301.35 279.57,301.35 279.57,281.81 268.54,281.81 "/>
   <polygon class="fil0" points="269.35,299.93 278.76,299.93 278.76,283.23 269.35,283.23 "/>
   <path class="fil6" d="M272.29 289.96l0 -1.24c0.06,-0.07 0.12,-0.14 0.19,-0.21l1.08 0c-0.42,0.49 -0.85,0.97 -1.27,1.45zm1.93 -2.2l-1.06 0c1.38,-1.51 2.76,-3.02 4.15,-4.53l0.91 0c-1.34,1.5 -2.67,3.02 -4,4.53z"/>
   <path class="fil6" d="M272.29 295.45l0 -0.61 0.59 0c-0.2,0.2 -0.39,0.41 -0.59,0.61zm1.31 -1.37l-1.31 0 0 -0.58c1.46,-1.66 2.92,-3.32 4.38,-4.99l2.08 0c-1.7,1.88 -3.41,3.74 -5.15,5.57z"/>
   <path class="fil6" d="M278.76 287.76l-1.43 0c0.48,-0.54 0.96,-1.08 1.43,-1.62l0 1.62z"/>
   <polygon class="fil5" points="273.46,301.01 274.06,301.01 274.06,282.19 273.46,282.19 "/>
   <polygon class="fil5" points="268.76,288.51 279.45,288.51 279.45,287.76 268.76,287.76 "/>
   <polygon class="fil5" points="268.76,294.84 279.45,294.84 279.45,294.08 268.76,294.08 "/>
   <polygon class="fil5" points="283.34,301.35 294.37,301.35 294.37,281.81 283.34,281.81 "/>
   <polygon class="fil0" points="284.14,299.93 293.56,299.93 293.56,283.23 284.14,283.23 "/>
   <path class="fil6" d="M284.14 293.3l0 -1.32c2.64,-2.93 5.3,-5.85 7.97,-8.75l0.91 0c-2.98,3.34 -5.9,6.73 -8.88,10.07z"/>
   <path class="fil6" d="M284.14 298.43l0 -1.63c3.19,-3.51 6.28,-7.12 9.42,-10.66l0 2.35c-3.06,3.39 -6.16,6.73 -9.42,9.94z"/>
   <polygon class="fil5" points="288.26,301.01 288.86,301.01 288.86,282.19 288.26,282.19 "/>
   <polygon class="fil5" points="283.56,288.51 294.25,288.51 294.25,287.76 283.56,287.76 "/>
   <polygon class="fil5" points="283.56,294.84 294.25,294.84 294.25,294.08 283.56,294.08 "/>
   <path class="fil7" d="M231.86 271.15c-0.93,-0.48 -1.13,-1.95 -0.35,-2.65 0.78,-0.7 2.22,-0.36 2.6,0.61 -0.13,-1.05 -0.17,-2.25 0.56,-3.02 0.73,-0.77 2.42,-0.43 2.37,0.62 -0.53,-1.14 0.44,-2.68 1.7,-2.69 1.26,-0.01 2.26,1.51 1.75,2.66 0.09,-1.03 1.42,-1.65 2.34,-1.18 0.92,0.47 1.25,1.73 0.84,2.68 0.25,-0.83 1.3,-1.31 2.09,-0.97 0.8,0.34 1.16,1.44 0.72,2.19 0.78,-1.23 3.12,-0.56 3.13,0.9 0.24,-1.11 2.18,-0.74 2.42,0.37 0.24,1.11 -0.58,2.15 -1.46,2.88l-18.72 0 0.01 -2.4z"/>
   <path class="fil7" d="M292.34 312.54c-0.94,-0.47 -1.13,-1.95 -0.36,-2.65 0.78,-0.7 2.22,-0.36 2.6,0.61 -0.13,-1.05 -0.16,-2.24 0.56,-3.02 0.73,-0.77 2.42,-0.43 2.37,0.62 -0.53,-1.14 0.44,-2.67 1.7,-2.69 1.26,-0.01 2.26,1.51 1.75,2.66 0.09,-1.03 1.43,-1.65 2.35,-1.18 0.91,0.47 1.25,1.74 0.84,2.68 0.25,-0.83 1.29,-1.31 2.09,-0.97 0.79,0.35 1.15,1.44 0.72,2.19 0.78,-1.22 3.11,-0.55 3.13,0.9 0.24,-1.11 2.17,-0.73 2.42,0.37 0.24,1.11 -0.59,2.16 -1.46,2.88l-18.72 0 0.01 -2.4z"/>
   <polygon class="fil5" points="229.4,275.34 255.54,275.34 255.54,270.77 229.4,270.77 "/>
   <polygon class="fil8" points="272.29,313.25 265.41,313.25 265.41,267.02 272.29,267.02 272.29,281.81 268.54,281.81 268.54,301.35 272.29,301.35 "/>
   <polygon class="fil5" points="272.29,301.35 268.54,301.35 268.54,281.81 272.29,281.81 272.29,283.23 269.35,283.23 269.35,287.76 268.76,287.76 268.76,288.51 269.35,288.51 269.35,294.08 268.76,294.08 268.76,294.84 269.35,294.84 269.35,299.93 272.29,299.93 "/>
   <path class="fil9" d="M272.29 299.93l-2.94 0 0 -5.09 1.76 0c-0.59,0.65 -1.17,1.31 -1.76,1.96l0 1.63c0.99,-0.98 1.97,-1.98 2.94,-2.98l0 4.48zm-0.51 -5.85l-2.43 0 0 -5.57 2.94 0 0 0.21c-0.99,1.08 -1.97,2.17 -2.94,3.26l0 1.32c0.98,-1.11 1.96,-2.22 2.94,-3.34l0 3.54c-0.17,0.2 -0.34,0.39 -0.51,0.58zm0.51 -6.32l-2.94 0 0 -4.53 2.94 0 0 4.53z"/>
   <path class="fil10" d="M269.35 293.3l0 -1.32c0.97,-1.09 1.95,-2.18 2.94,-3.26l0 1.24c-0.98,1.12 -1.96,2.23 -2.94,3.34z"/>
   <path class="fil10" d="M269.35 298.43l0 -1.63c0.59,-0.65 1.17,-1.31 1.76,-1.96l1.18 0 0 0.61c-0.97,1 -1.95,2 -2.94,2.98zm2.94 -4.35l-0.51 0c0.17,-0.19 0.34,-0.38 0.51,-0.58l0 0.58z"/>
   <polygon class="fil5" points="272.29,288.51 268.76,288.51 268.76,287.76 272.29,287.76 "/>
   <polygon class="fil5" points="272.29,294.84 268.76,294.84 268.76,294.08 272.29,294.08 "/>
   <polygon class="fil14" points="219.6,273.63 219.71,273.63 219.71,271.18 219.6,271.18 "/>
   <polygon class="fil8" points="219.71,273.63 223.68,273.63 223.68,271.18 219.71,271.18 "/>
   <path class="fil14" d="M219.71 279.87c-0.04,0 -0.07,-0.01 -0.11,-0.02l0 -0.5 0.11 0 0 0.52z"/>
   <path class="fil8" d="M223.68 281.8l-0.59 0c-0.8,-0.89 -1.89,-1.62 -3.38,-1.93l0 -0.52 3.97 0 0 2.45z"/>
   <polygon class="fil8" points="260.85,273.63 264.94,273.63 264.94,271.18 260.85,271.18 "/>
   <polygon class="fil8" points="260.85,281.8 264.94,281.8 264.94,279.35 260.85,279.35 "/>
   <polygon class="fil8" points="260.85,289.97 264.94,289.97 264.94,287.52 260.85,287.52 "/>
   <polygon class="fil8" points="260.85,298.14 264.94,298.14 264.94,295.69 260.85,295.69 "/>
   <polygon class="fil8" points="260.85,306.3 264.94,306.3 264.94,303.85 260.85,303.85 "/>
   <polygon class="fil8" points="308.23,273.63 312.32,273.63 312.32,271.18 308.23,271.18 "/>
   <polygon class="fil8" points="308.23,281.8 312.32,281.8 312.32,279.35 308.23,279.35 "/>
   <polygon class="fil8" points="309.17,289.97 312.32,289.97 312.32,287.52 309.17,287.52 "/>
   <polygon class="fil8" points="309.17,298.14 312.32,298.14 312.32,295.69 309.17,295.69 "/>
   <polygon class="fil8" points="308.23,306.3 312.32,306.3 312.32,303.85 308.23,303.85 "/>
   <polygon class="fil5" points="298.14,301.35 309.17,301.35 309.17,281.81 298.14,281.81 "/>
   <polygon class="fil0" points="298.95,299.93 308.37,299.93 308.37,283.23 298.95,283.23 "/>
   <path class="fil6" d="M298.95 293.3l0 -1.32c2.63,-2.93 5.29,-5.85 7.96,-8.75l0.91 0c-2.98,3.34 -5.9,6.73 -8.87,10.07z"/>
   <path class="fil6" d="M298.95 298.43l0 -1.63c3.18,-3.51 6.27,-7.12 9.42,-10.66l0 2.35c-3.07,3.39 -6.17,6.73 -9.42,9.94z"/>
   <polygon class="fil5" points="303.06,301.01 303.66,301.01 303.66,282.19 303.06,282.19 "/>
   <polygon class="fil5" points="298.36,288.51 309.05,288.51 309.05,287.76 298.36,287.76 "/>
   <polygon class="fil5" points="298.36,294.84 309.05,294.84 309.05,294.08 298.36,294.08 "/>
   <path class="fil2" d="M304.5 337.76l-69 0c-4.37,0 -7.94,-3.57 -7.94,-7.93 0,-4.37 3.57,-7.93 7.94,-7.93l69 0c4.36,0 7.93,3.56 7.93,7.93 0,4.36 -3.57,7.93 -7.93,7.93z"/>
   <polygon class="fil15" points="241.05,325.23 242.54,328.26 245.88,328.74 243.46,331.1 244.03,334.42 241.05,332.85 238.06,334.42 238.63,331.1 236.22,328.74 239.56,328.26 "/>
   <polygon class="fil15" points="256.3,325.23 257.8,328.26 261.13,328.74 258.72,331.1 259.29,334.42 256.3,332.85 253.32,334.42 253.89,331.1 251.47,328.74 254.81,328.26 "/>
   <polygon class="fil15" points="271.56,325.23 273.05,328.26 276.39,328.74 273.98,331.1 274.55,334.42 271.56,332.85 268.58,334.42 269.15,331.1 266.73,328.74 270.07,328.26 "/>
   <polygon class="fil15" points="286.82,325.23 288.31,328.26 291.65,328.74 289.23,331.1 289.8,334.42 286.82,332.85 283.83,334.42 284.4,331.1 281.99,328.74 285.33,328.26 "/>
   <polygon class="fil15" points="302.08,325.23 303.57,328.26 306.91,328.74 304.49,331.1 305.06,334.42 302.08,332.85 299.09,334.42 299.66,331.1 297.25,328.74 300.58,328.26 "/>
   <path class="fil16" d="M264.66 351.48l-51.09 0c-0.48,0 -0.87,-0.39 -0.87,-0.87l0 -0.64c0,-0.48 0.39,-0.87 0.87,-0.87l51.09 0c0.47,0 0.86,0.39 0.86,0.87l0 0.64c0,0.48 -0.39,0.87 -0.86,0.87z"/>
   <path class="fil16" d="M264.66 359.41l-51.09 0c-0.48,0 -0.87,-0.39 -0.87,-0.86l0 -0.65c0,-0.48 0.39,-0.87 0.87,-0.87l51.09 0c0.47,0 0.86,0.39 0.86,0.87l0 0.65c0,0.47 -0.39,0.86 -0.86,0.86z"/>
   <path class="fil16" d="M264.66 367.35l-51.09 0c-0.48,0 -0.87,-0.4 -0.87,-0.87l0 -0.65c0,-0.47 0.39,-0.86 0.87,-0.86l51.09 0c0.47,0 0.86,0.39 0.86,0.86l0 0.65c0,0.47 -0.39,0.87 -0.86,0.87z"/>
   <path class="fil16" d="M264.66 375.28l-51.09 0c-0.48,0 -0.87,-0.39 -0.87,-0.87l0 -0.64c0,-0.48 0.39,-0.87 0.87,-0.87l51.09 0c0.47,0 0.86,0.39 0.86,0.87l0 0.64c0,0.48 -0.39,0.87 -0.86,0.87z"/>
   <path class="fil16" d="M264.66 383.21l-51.09 0c-0.48,0 -0.87,-0.39 -0.87,-0.87l0 -0.64c0,-0.48 0.39,-0.87 0.87,-0.87l51.09 0c0.47,0 0.86,0.39 0.86,0.87l0 0.64c0,0.48 -0.39,0.87 -0.86,0.87z"/>
   <path class="fil16" d="M264.66 391.14l-51.09 0c-0.48,0 -0.87,-0.39 -0.87,-0.87l0 -0.64c0,-0.48 0.39,-0.87 0.87,-0.87l51.09 0c0.47,0 0.86,0.39 0.86,0.87l0 0.64c0,0.48 -0.39,0.87 -0.86,0.87z"/>
   <path class="fil16" d="M264.66 399.07l-51.09 0c-0.48,0 -0.87,-0.39 -0.87,-0.87l0 -0.64c0,-0.48 0.39,-0.87 0.87,-0.87l51.09 0c0.47,0 0.86,0.39 0.86,0.87l0 0.64c0,0.48 -0.39,0.87 -0.86,0.87z"/>
   <polygon class="fil17" points="273.51,438.52 322.46,438.52 322.46,349.62 273.51,349.62 "/>
   <polygon class="fil7" points="273.51,349.62 322.46,349.62 322.46,386.41 "/>
   <polygon class="fil7" points="273.88,357.11 304.27,380.99 304.81,407.04 273.88,408.12 "/>
   <polygon class="fil7" points="273.88,413.01 307.53,413.01 322.72,431.46 322.72,438.52 273.51,438.52 "/>
   <polygon class="fil7" points="322.18,390.21 311.33,390.76 311.33,408.12 322.72,423.32 "/>
   <path class="fil2" d="M300.45 371.22c0,-2.77 -2.24,-5.01 -5.01,-5.01 -2.77,0 -5.01,2.24 -5.01,5.01 0,0.37 0.04,0.72 0.11,1.06 0.42,4.57 4.79,11.97 4.79,11.97l0.08 0c0,0 4.15,-5.6 5.03,-12.5l-0.02 -0.02c0.02,-0.17 0.03,-0.34 0.03,-0.51z"/>
   <path class="fil3" d="M298.61 370.73c0,1.75 -1.42,3.17 -3.17,3.17 -1.75,0 -3.17,-1.42 -3.17,-3.17 0,-1.75 1.42,-3.16 3.17,-3.16 1.75,0 3.17,1.41 3.17,3.16z"/>
   <polygon class="fil18" points="211.67,436.75 264.76,436.75 264.76,408.16 211.67,408.16 "/>
   <path class="fil3" d="M240.11 426.62c0.64,-0.21 0.96,-0.6 0.97,-1.15 0,-0.23 -0.08,-0.44 -0.22,-0.61 -0.14,-0.18 -0.38,-0.34 -0.71,-0.48l-0.04 2.24zm-2.04 -6.53l0.03 -2.17c-0.31,0.1 -0.54,0.24 -0.69,0.42 -0.14,0.18 -0.22,0.4 -0.22,0.64 -0.03,0.48 0.27,0.85 0.88,1.11zm-0.19 11.87l0.03 -1.8c-1.68,-0.16 -3.02,-0.69 -4,-1.6 -0.99,-0.9 -1.49,-2.22 -1.5,-3.97l3.99 0c0.05,1.08 0.57,1.76 1.56,2.04l0.05 -2.83 -0.79 -0.17c-1.37,-0.3 -2.45,-0.79 -3.24,-1.49 -0.79,-0.7 -1.18,-1.65 -1.17,-2.86 -0.01,-0.9 0.21,-1.7 0.66,-2.4 0.45,-0.7 1.08,-1.26 1.88,-1.69 0.81,-0.43 1.74,-0.7 2.8,-0.8l0.03 -1.76 2.15 0 -0.03 1.8c1.51,0.2 2.69,0.75 3.56,1.63 0.86,0.88 1.3,1.99 1.3,3.34l-4.02 0c-0.05,-0.67 -0.35,-1.13 -0.9,-1.38l-0.04 2.63 0.34 0.08c1.71,0.37 2.94,0.95 3.69,1.76 0.76,0.81 1.14,1.8 1.14,2.98 0,1.39 -0.47,2.49 -1.41,3.3 -0.94,0.81 -2.24,1.27 -3.9,1.4l-0.03 1.79 -2.15 0z"/>
   <path class="fil19" d="M220.73 280.76c0,0 -9.69,-11.62 -32.28,36.14l-0.64 -55.51c0,0 -15.49,6.46 -20.66,13.56 -5.16,7.1 -15.49,31.62 -20.01,36.14 -4.45,4.45 -38.31,100.28 -35.65,138.95l57.97 0c0.83,-5.8 3.48,-15.9 11.89,-25.99 12.91,-15.49 29.69,-36.15 20.66,-65.84 0,0 5.81,-14.85 10.32,-23.24 4.52,-8.39 25.18,-41.3 8.4,-54.21z"/>
   <path class="fil20" d="M195.53 404.94l0 0c5.19,-8.68 9.04,-18.64 9.04,-30.18 0,11.54 -3.85,21.5 -9.04,30.18zm16.81 -69.98c0,0 0,0 0,0 0,0 0,0 0,0z"/>
   <path class="fil21" d="M173.51 436.45c-8.42,-0.59 -51.61,-3.63 -61.27,-4.74 1.27,-10.94 3.8,-23.58 6.95,-36.46 0.14,0.58 0.28,1.17 0.44,1.75 3.86,13.95 14.44,25.6 29.22,25.59 1.23,0 2.5,-0.08 3.78,-0.24 18.76,-2.44 33.36,-22.3 38.59,-39.27 3.46,-11.23 2.25,-23.54 6.53,-34.53 2.07,-5.3 5.8,-9.99 8.72,-14.84 3.35,-5.55 6.5,-11.24 9.23,-17.12 3.81,-8.21 7.41,-17.05 8.7,-26.13 0.3,-0.79 0.58,-1.65 0.84,-2.6 0,0 0,-0.92 -0.27,-2.13 8.13,14.92 -8.59,41.74 -12.63,49.23 0,0 0,0 0,0 0,0.01 0,0.01 -0.01,0.01l0 0c-4.51,8.39 -10.32,23.24 -10.32,23.24l0 0c1.78,5.86 2.56,11.36 2.56,16.55 0,11.54 -3.85,21.5 -9.04,30.18 -1.98,3.31 -4.15,6.43 -6.38,9.39 -2.6,3.46 -5.27,6.69 -7.8,9.72 -1.97,2.36 -3.63,4.73 -5.02,7.04 -1.1,1.83 -2.03,3.63 -2.82,5.36z"/>
   <path class="fil22" d="M176.84 338.2c1.58,-3.74 3.43,-7.34 5.36,-10.89 1.95,-3.55 3.96,-7.05 6.25,-10.41 -1.58,3.74 -3.44,7.34 -5.36,10.9 -1.95,3.54 -3.96,7.04 -6.25,10.4z"/>
   <path class="fil22" d="M172.24 275.02c-0.49,0 -0.94,-0.1 -1.38,-0.23 -0.64,-0.24 -1.25,-0.54 -1.77,-1.13 0.25,-0.06 0.49,-0.08 0.72,-0.08 0.48,0 0.94,0.1 1.38,0.24 0.64,0.22 1.25,0.53 1.77,1.13 -0.25,0.05 -0.49,0.07 -0.72,0.07z"/>
   <path class="fil22" d="M171.67 278.17c-0.99,-0.2 -1.79,-0.67 -2.56,-1.19 -0.74,-0.56 -1.44,-1.17 -1.96,-2.03 0.99,0.21 1.8,0.67 2.56,1.19 0.74,0.55 1.44,1.17 1.96,2.03z"/>
   <path class="fil22" d="M211.69 311.09c-1.5,-0.4 -2.83,-1.08 -4.13,-1.82 -1.28,-0.76 -2.53,-1.6 -3.62,-2.7 1.5,0.41 2.83,1.08 4.13,1.82 1.29,0.77 2.53,1.6 3.62,2.7z"/>
   <path class="fil22" d="M210.4 314.96c-1.71,-0.5 -3.26,-1.29 -4.77,-2.13 -1.5,-0.88 -2.96,-1.82 -4.27,-3.03 1.71,0.51 3.26,1.29 4.77,2.14 1.5,0.87 2.96,1.81 4.27,3.02z"/>
   <path class="fil23" d="M219.6 279.96c-0.13,-0.06 -0.27,-0.12 -0.43,-0.18 0.15,0.02 0.29,0.05 0.43,0.07l0 0.11z"/>
   <path class="fil3" d="M224.95 285.64c-0.77,-1.39 -1.76,-2.68 -3,-3.84l1.14 0c1.05,1.17 1.59,2.64 1.86,3.84z"/>
   <path class="fil24" d="M219.71 280.01c-0.03,-0.02 -0.07,-0.03 -0.11,-0.05l0 -0.11c0.04,0.01 0.07,0.02 0.11,0.02l0 0.14z"/>
   <path class="fil25" d="M223.09 281.8l-1.14 0c-0.38,-0.36 -0.79,-0.71 -1.22,-1.04 0,0 -0.34,-0.4 -1.02,-0.75l0 -0.14c1.49,0.31 2.58,1.04 3.38,1.93z"/>
   <path class="fil23" d="M212.62 281.18c0.22,-0.27 0.36,-0.42 0.36,-0.42 0.37,-0.14 0.72,-0.26 1.06,-0.37 -0.45,0.22 -0.92,0.48 -1.42,0.79z"/>
   <path class="fil26" d="M216.08 297.81c-2.13,0 -3.73,-0.91 -3.75,-0.92 0.02,0.01 1.62,0.91 3.75,0.91 0.69,0 1.43,-0.09 2.2,-0.34 -1.37,-3.89 -3.97,-7.73 -6.71,-7.73 -1.11,0 -2.24,0.63 -3.32,2.14 0.25,1.94 1.37,3.74 4.04,5 -8.5,-4.01 -1.41,-13.55 0.33,-15.69 0.5,-0.31 0.97,-0.57 1.42,-0.79 1.54,-0.47 2.86,-0.68 4.01,-0.68 0.39,0 0.77,0.03 1.12,0.07 0.16,0.06 0.3,0.12 0.43,0.18 0.04,0.02 0.08,0.03 0.11,0.05 0.68,0.35 1.02,0.75 1.02,0.75 0.43,0.33 0.84,0.68 1.22,1.04 1.24,1.16 2.23,2.45 3,3.84 0.01,0.03 0.02,0.06 0.02,0.09 -0.03,-0.07 -0.07,-0.14 -0.11,-0.21 -0.07,1.65 -0.23,3.3 -0.46,4.94 -2.31,5.99 -5.71,7.35 -8.32,7.35z"/>
   <path class="fil27" d="M224.4 290.46c0.23,-1.64 0.39,-3.29 0.46,-4.94 0.04,0.07 0.08,0.14 0.11,0.21 0.27,1.21 0.27,2.13 0.27,2.13 -0.26,0.95 -0.54,1.81 -0.84,2.6z"/>
   <path class="fil26" d="M212.31 296.88c0,0 -0.01,-0.01 -0.02,-0.01 0.01,0 0.02,0.01 0.02,0.01z"/>
   <path class="fil26" d="M212.33 296.89l0 0c0,0 -0.01,-0.01 -0.02,-0.01 0.01,0 0.02,0.01 0.02,0.01l0 0zm-0.04 -0.02c0,0 0,0 0,0 0,0 0,0 0,0z"/>
   <path class="fil28" d="M216.08 297.8c-2.13,0 -3.73,-0.9 -3.75,-0.91l0 0c0,0 -0.01,-0.01 -0.02,-0.01 0,0 -0.01,-0.01 -0.02,-0.01 0,0 0,0 0,0 -2.67,-1.26 -3.79,-3.06 -4.04,-5 1.08,-1.51 2.21,-2.14 3.32,-2.14 2.74,0 5.34,3.84 6.71,7.73 -0.77,0.25 -1.51,0.34 -2.2,0.34z"/>
   <path class="fil18" d="M174.93 444.18l0 -7.63c0,0 -61.07,-4.24 -64.46,-5.09 -3.4,-0.85 -3.4,9.33 -3.4,9.33 0,0 -13.57,44.11 -14.42,58.53l82.28 0c0,0 1.7,-50.05 0,-55.14z"/>
   <path class="fil29" d="M174.93 444.18l0 -0.56 0.03 0 -0.03 0.56zm-67.86 -3.39l0 -0.01c0,0.01 0,0.01 0,0.01 0,0 0,0 0,0z"/>
   <path class="fil29" d="M116.12 459.75l-1.13 0c0,-3.67 2.43,-14.54 3.19,-17.84l-11.14 -0.56 0.03 -0.56c0,0 0,0 0,0 0,0 0,0 0,-0.01l0.03 -0.55 67.83 3.39 0 0.56 -0.03 0.57 -55.58 -2.78c-0.69,3 -3.2,14.2 -3.2,17.78z"/>
   <polygon class="fil29" points="140.72,470.79 139.59,470.76 140.44,443.61 141.56,443.65 "/>
   <path class="fil29" d="M163.62 464.05l-1.12 -0.12c0.82,-8.29 -1.66,-19.21 -1.69,-19.32l1.1 -0.26c0.02,0.11 2.55,11.22 1.71,19.7z"/>
   <path class="fil0" d="M445.71 102.51c0.8,-0.88 1.29,-2.05 1.29,-3.33 0,-2.74 -2.22,-4.95 -4.96,-4.95 -0.73,0 -1.42,0.16 -2.04,0.44 -1.2,-1.57 -3.09,-2.59 -5.22,-2.59 -0.14,0 -0.27,0.01 -0.41,0.02 -0.48,-3.16 -3.2,-5.58 -6.49,-5.58 -3.36,0 -6.13,2.53 -6.52,5.78 -0.37,-0.07 -0.76,-0.11 -1.16,-0.11 -3.62,0 -6.56,2.94 -6.56,6.57 0,1.39 0.44,2.69 1.18,3.75l30.89 0z"/>
   <path class="fil0" d="M364.77 28.67c0.53,-0.74 0.85,-1.66 0.85,-2.65 0,-2.51 -2.04,-4.55 -4.56,-4.55 -0.67,0 -1.3,0.14 -1.87,0.4 -1.11,-1.44 -2.85,-2.37 -4.8,-2.37 -0.13,0 -0.26,0 -0.38,0.01 -0.44,-2.9 -2.94,-5.13 -5.97,-5.13 -1.91,0 -3.62,0.89 -4.72,2.28 -0.32,-0.07 -0.64,-0.11 -0.98,-0.11 -2.3,0 -4.2,1.72 -4.51,3.94 -0.59,0.36 -1.11,0.82 -1.54,1.36 -0.56,-0.25 -1.18,-0.38 -1.82,-0.38 -2.52,0 -4.56,2.04 -4.56,4.55 0,0.99 0.32,1.91 0.85,2.65l34.01 0z"/>
   <path class="fil0" d="M52.53 61.09c0.54,-0.75 0.85,-1.66 0.85,-2.65 0,-2.52 -2.04,-4.56 -4.55,-4.56 -0.67,0 -1.31,0.15 -1.88,0.41 -1.11,-1.45 -2.85,-2.38 -4.8,-2.38 -0.13,0 -0.25,0 -0.38,0.01 -0.44,-2.9 -2.94,-5.13 -5.97,-5.13 -1.91,0 -3.61,0.9 -4.72,2.28 -0.31,-0.06 -0.64,-0.1 -0.98,-0.1 -2.3,0 -4.2,1.71 -4.51,3.93 -0.59,0.36 -1.11,0.82 -1.54,1.36 -0.56,-0.24 -1.18,-0.38 -1.82,-0.38 -2.52,0 -4.56,2.04 -4.56,4.56 0,0.99 0.32,1.9 0.85,2.65l34.01 0z"/>
   <path class="fil3" d="M200.2 48.01c1.38,-1.52 2.22,-3.52 2.22,-5.73 0,-4.71 -3.82,-8.53 -8.53,-8.53 -1.26,0 -2.45,0.28 -3.52,0.76 -2.06,-2.7 -5.32,-4.45 -8.99,-4.45 -0.23,0 -0.47,0.01 -0.7,0.02 -0.82,-5.43 -5.51,-9.6 -11.17,-9.6 -5.79,0 -10.56,4.35 -11.22,9.95 -0.65,-0.11 -1.32,-0.18 -2,-0.18 -6.25,0 -11.31,5.06 -11.31,11.3 0,2.4 0.76,4.63 2.03,6.46l53.19 0z"/>
   <path class="fil3" d="M76.33 98.57c0.5,-0.7 0.79,-1.55 0.79,-2.47 0,-2.35 -1.9,-4.25 -4.24,-4.25 -0.62,0 -1.22,0.14 -1.75,0.38 -1.03,-1.34 -2.65,-2.21 -4.47,-2.21 -0.12,0 -0.23,0 -0.35,0.01 -0.41,-2.7 -2.74,-4.77 -5.56,-4.77 -1.78,0 -3.37,0.83 -4.4,2.12 -0.29,-0.06 -0.59,-0.1 -0.9,-0.1 -2.15,0 -3.92,1.59 -4.2,3.66 -0.55,0.34 -1.04,0.77 -1.44,1.27 -0.52,-0.23 -1.1,-0.36 -1.7,-0.36 -2.34,0 -4.24,1.9 -4.24,4.25 0,0.92 0.29,1.77 0.79,2.47l31.67 0z"/>
   <path class="fil30" d="M283.29 82.77l-31.67 0c-0.5,-0.7 -0.79,-1.55 -0.79,-2.47 0,-2.35 1.9,-4.25 4.24,-4.25 0.6,0 1.18,0.13 1.7,0.36 0.4,-0.5 0.89,-0.93 1.44,-1.27 0.28,-2.06 2.05,-3.66 4.2,-3.66 0.31,0 0.61,0.04 0.91,0.1 1.02,-1.29 2.61,-2.12 4.39,-2.12 2.82,0 5.15,2.07 5.56,4.77 0.12,-0.01 0.23,-0.01 0.35,-0.01 1.82,0 3.44,0.87 4.47,2.21 0.53,-0.24 1.13,-0.38 1.75,-0.38 2.34,0 4.25,1.9 4.25,4.25 0,0.92 -0.3,1.77 -0.8,2.47z"/>
   <path class="fil31" d="M410.71 145.03l-16.63 0c-0.26,-0.36 -0.42,-0.81 -0.42,-1.29 0,-1.23 1,-2.23 2.23,-2.23 0.32,0 0.62,0.06 0.89,0.18 0.21,-0.26 0.47,-0.48 0.76,-0.66 0.15,-1.09 1.08,-1.92 2.2,-1.92 0.17,0 0.33,0.02 0.48,0.05 0.54,-0.68 1.37,-1.12 2.31,-1.12 1.48,0 2.71,1.09 2.92,2.51l0.18 -0.01c0.96,0 1.81,0.46 2.35,1.17 0.28,-0.13 0.59,-0.2 0.92,-0.2 1.23,0 2.23,1 2.23,2.23 0,0.48 -0.16,0.93 -0.42,1.29z"/>
  </g>
 </g>
</svg>
