<?xml version="1.0" encoding="UTF-8"?>
<!DOCTYPE svg PUBLIC "-//W3C//DTD SVG 1.1//EN" "http://www.w3.org/Graphics/SVG/1.1/DTD/svg11.dtd">
<!-- Creator: CorelDRAW 2019 (64 Bit) -->
<svg xmlns="http://www.w3.org/2000/svg" xml:space="preserve" width="176.389mm" height="176.389mm" version="1.1" style="shape-rendering:geometricPrecision; text-rendering:geometricPrecision; image-rendering:optimizeQuality; fill-rule:evenodd; clip-rule:evenodd"
viewBox="0 0 17638.88 17638.88"
 xmlns:xlink="http://www.w3.org/1999/xlink">
 <defs>
  <style type="text/css">
   <![CDATA[
    .fil3 {fill:#FEFEFE;fill-rule:nonzero}
    .fil27 {fill:#FEF3EC;fill-rule:nonzero}
    .fil25 {fill:#FDE2D2;fill-rule:nonzero}
    .fil26 {fill:#FDDDCD;fill-rule:nonzero}
    .fil18 {fill:#FAB286;fill-rule:nonzero}
    .fil15 {fill:#FAAC41;fill-rule:nonzero}
    .fil20 {fill:#F8A579;fill-rule:nonzero}
    .fil4 {fill:#F48E8E;fill-rule:nonzero}
    .fil21 {fill:#F0688D;fill-rule:nonzero}
    .fil2 {fill:#F16867;fill-rule:nonzero}
    .fil24 {fill:#E9EAEC;fill-rule:nonzero}
    .fil22 {fill:#DAF1FC;fill-rule:nonzero}
    .fil17 {fill:#D9D3D3;fill-rule:nonzero}
    .fil23 {fill:#D1E1EC;fill-rule:nonzero}
    .fil29 {fill:#C6883F;fill-rule:nonzero}
    .fil8 {fill:#C1C8D2;fill-rule:nonzero}
    .fil30 {fill:#ACDBF0;fill-rule:nonzero}
    .fil6 {fill:#9FD3ED;fill-rule:nonzero}
    .fil19 {fill:#A3C7D9;fill-rule:nonzero}
    .fil1 {fill:#99DBF8;fill-rule:nonzero}
    .fil31 {fill:#81C9EA;fill-rule:nonzero}
    .fil10 {fill:#83AECC;fill-rule:nonzero}
    .fil28 {fill:#83A6C4;fill-rule:nonzero}
    .fil14 {fill:#7CB2D4;fill-rule:nonzero}
    .fil13 {fill:#69738E;fill-rule:nonzero}
    .fil0 {fill:#3AAFE4;fill-rule:nonzero}
    .fil16 {fill:#5C80A4;fill-rule:nonzero}
    .fil9 {fill:#3D94C5;fill-rule:nonzero}
    .fil7 {fill:#00B2A4;fill-rule:nonzero}
    .fil12 {fill:#087EC1;fill-rule:nonzero}
    .fil11 {fill:#00B0A7;fill-rule:nonzero}
    .fil5 {fill:#2D324C;fill-rule:nonzero}
   ]]>
  </style>
 </defs>
 <g id="Camada_x0020_1">
  <metadata id="CorelCorpID_0Corel-Layer"/>
  <path class="fil0" d="M15437.41 8819.44c0,3758.88 -3047.15,6806.08 -6806.04,6806.08 -3758.88,0 -6806.05,-3047.2 -6806.05,-6806.08 0,-3758.88 3047.17,-6806.04 6806.05,-6806.04 3758.89,0 6806.04,3047.16 6806.04,6806.04z"/>
  <path class="fil1" d="M13845.85 9568.78l1550.31 0c1.29,-11.78 2.8,-23.48 4.03,-35.28l-1554.34 0 0 35.28z"/>
  <path class="fil1" d="M1866.57 9568.78l1104.02 0 0 -35.28 -1108.05 0c1.23,11.8 2.74,23.5 4.03,35.28z"/>
  <path class="fil1" d="M1984.17 10285.62l13294.39 0c2.58,-11.75 5.16,-23.51 7.68,-35.28l-13309.75 0c2.52,11.77 5.1,23.53 7.68,35.28z"/>
  <path class="fil1" d="M2024.53 10458.66l13213.67 0c2.9,-11.75 5.77,-23.51 8.61,-35.28l-13230.89 0c2.84,11.77 5.71,23.53 8.61,35.28z"/>
  <path class="fil1" d="M2865.35 12436.26l11532.03 0c7.38,-11.74 14.71,-23.49 22.02,-35.28l-11576.07 0c7.31,11.79 14.64,23.54 22.02,35.28z"/>
  <path class="fil1" d="M14945.84 11362.72c-4.75,11.79 -9.59,23.53 -14.41,35.28l-77.62 0 0 -35.28 92.03 0zm-12614.54 35.28c-4.82,-11.75 -9.66,-23.49 -14.41,-35.28l42.58 0 0 35.28 -28.17 0zm459.02 0l430.84 0 0 -35.28 -430.84 0 0 35.28zm861.67 0l430.84 0 0 -35.28 -430.84 0 0 35.28zm861.69 0l430.85 0 0 -35.28 -430.85 0 0 35.28zm861.66 0l430.85 0 0 -35.28 -430.85 0 0 35.28zm861.7 0l430.84 0 0 -35.28 -430.84 0 0 35.28zm861.66 0l430.84 0 0 -35.28 -430.84 0 0 35.28zm861.69 0l430.85 0 0 -35.28 -430.85 0 0 35.28zm861.66 0l430.85 0 0 -35.28 -430.85 0 0 35.28zm861.7 0l430.84 0 0 -35.28 -430.84 0 0 35.28zm861.65 0l430.85 0 0 -35.28 -430.85 0 0 35.28zm861.7 0l430.85 0 0 -35.28 -430.85 0 0 35.28zm861.69 0l430.82 0 0 -35.28 -430.82 0 0 35.28zm861.66 0l430.85 0 0 -35.28 -430.85 0 0 35.28zm861.7 0l430.81 0 0 -35.28 -430.81 0 0 35.28z"/>
  <path class="fil1" d="M9032.87 6098.89l17.64 0 0 -184.96 185.6 0 0 167.32 -203.24 0 0 17.64 17.64 0 -17.64 0 0 17.64 238.51 0 0 -237.88 -256.15 0 0 237.88 17.64 0 0 -17.64zm-240.98 0l17.64 0 0 -184.96 191.27 0 0 167.32 -208.91 0 0 17.64 17.64 0 -17.64 0 0 17.64 244.19 0 0 -237.88 -261.83 0 0 237.88 17.64 0 0 -17.64zm226.55 -706.9l-17.64 0 0 222.78 -191.27 0 0 -205.14 208.91 0 0 -17.64 -17.64 0 17.64 0 0 -17.64 -244.19 0 0 275.7 261.83 0 0 -275.7 -17.64 0 0 17.64zm0 491.99l0 -17.64 -208.91 0 0 -203.98 191.27 0 0 221.62 17.64 0 0 -17.64 0 17.64 17.64 0 0 -256.9 -261.83 0 0 274.54 261.83 0 0 -17.64 -17.64 0zm14.43 -239.26l0 17.64 203.24 0 0 203.98 -185.6 0 0 -221.62 -17.64 0 0 17.64 0 -17.64 -17.64 0 0 256.9 256.15 0 0 -274.54 -256.15 0 0 17.64 17.64 0zm220.87 -12.31l0 -17.64 -203.23 0 0 -205.14 185.6 0 0 222.78 17.63 0 0 -17.64 0 17.64 17.64 0 0 -258.06 -256.15 0 0 275.7 256.15 0 0 -17.64 -17.64 0zm14.43 -252.73l0 -17.64 -508.39 0 0 766.8 258.66 0 0 -17.64 -17.64 0 0 21.94 49.71 0 0 -4.3 235.3 0 0 -766.8 -17.64 0 0 17.64 -17.64 0 0 713.88 -235.3 0 0 21.94 17.64 0 0 -17.63 -14.43 0 0 17.63 17.64 0 0 -21.94 -241.02 0 0 -696.24 473.11 0 0 -17.64 -17.64 0 17.64 0z"/>
  <path class="fil1" d="M9774.94 6098.89l17.64 0 0 -184.96 185.56 0 0 167.32 -203.2 0 0 17.64 17.64 0 -17.64 0 0 17.64 238.48 0 0 -237.88 -256.12 0 0 237.88 17.64 0 0 -17.64zm-241.02 0l17.64 0 0 -184.96 191.28 0 0 167.32 -208.92 0 0 17.64 17.64 0 -17.64 0 0 17.64 244.19 0 0 -237.88 -261.83 0 0 237.88 17.64 0 0 -17.64zm226.55 -706.9l-17.63 0 0 222.78 -191.28 0 0 -205.14 208.91 0 0 -17.64 -17.63 0 17.63 0 0 -17.64 -244.19 0 0 275.7 261.83 0 0 -275.7 -17.64 0 0 17.64zm0 491.99l0 -17.64 -208.91 0 0 -203.98 191.28 0 0 221.62 17.63 0 0 -17.64 0 17.64 17.64 0 0 -256.9 -261.83 0 0 274.54 261.83 0 0 -17.64 -17.64 0zm14.47 -239.26l0 17.64 203.2 0 0 203.98 -185.56 0 0 -221.62 -17.64 0 0 17.64 0 -17.64 -17.64 0 0 256.9 256.12 0 0 -274.54 -256.12 0 0 17.64 17.64 0zm220.84 -12.31l0 -17.64 -203.2 0 0 -205.14 185.56 0 0 222.78 17.64 0 0 -17.64 0 17.64 17.64 0 0 -258.06 -256.12 0 0 275.7 256.12 0 0 -17.64 -17.64 0zm14.46 -252.73l0 -17.64 -508.42 0 0 766.8 258.65 0 0 -17.64 -17.63 0 0 21.94 49.74 0 0 -4.3 235.3 0 0 -766.8 -17.64 0 0 17.64 -17.64 0 0 713.88 -235.3 0 0 21.94 17.64 0 0 -17.63 -14.47 0 0 17.63 17.64 0 0 -21.94 -241.01 0 0 -696.24 473.14 0 0 -17.64 -17.64 0 17.64 0z"/>
  <path class="fil1" d="M10516.97 6098.89l17.64 0 0 -184.96 185.6 0 0 167.32 -203.24 0 0 17.64 17.64 0 -17.64 0 0 17.64 238.51 0 0 -237.88 -256.15 0 0 237.88 17.64 0 0 -17.64zm-240.98 0l17.64 0 0 -184.96 191.27 0 0 167.32 -208.91 0 0 17.64 17.64 0 -17.64 0 0 17.64 244.19 0 0 -237.88 -261.83 0 0 237.88 17.64 0 0 -17.64zm226.55 -706.9l-17.64 0 0 222.78 -191.27 0 0 -205.14 208.91 0 0 -17.64 -17.64 0 17.64 0 0 -17.64 -244.19 0 0 275.7 261.83 0 0 -275.7 -17.64 0 0 17.64zm0 491.99l0 -17.64 -208.91 0 0 -203.98 191.27 0 0 221.62 17.64 0 0 -17.64 0 17.64 17.64 0 0 -256.9 -261.83 0 0 274.54 261.83 0 0 -17.64 -17.64 0zm14.43 -239.26l0 17.64 203.24 0 0 203.98 -185.6 0 0 -221.62 -17.64 0 0 17.64 0 -17.64 -17.64 0 0 256.9 256.15 0 0 -274.54 -256.15 0 0 17.64 17.64 0zm220.88 -12.31l0 -17.64 -203.24 0 0 -205.14 185.6 0 0 222.78 17.64 0 0 -17.64 0 17.64 17.63 0 0 -258.06 -256.15 0 0 275.7 256.15 0 0 -17.64 -17.63 0zm14.46 -252.73l0 -17.64 -508.42 0 0 766.8 258.65 0 0 -17.64 -17.64 0 0 21.94 49.71 0 0 -4.3 235.34 0 0 -766.8 -17.64 0 0 17.64 -17.64 0 0 713.88 -235.34 0 0 21.94 17.64 0 0 -17.63 -14.43 0 0 17.63 17.64 0 0 -21.94 -241.02 0 0 -696.24 473.15 0 0 -17.64 -17.64 0 17.64 0z"/>
  <path class="fil1" d="M11259 6098.89l17.64 0 0 -184.96 185.63 0 0 167.32 -203.27 0 0 17.64 17.64 0 -17.64 0 0 17.64 238.55 0 0 -237.88 -256.19 0 0 237.88 17.64 0 0 -17.64zm-240.98 0l17.64 0 0 -184.96 191.28 0 0 167.32 -208.92 0 0 17.64 17.64 0 -17.64 0 0 17.64 244.19 0 0 -237.88 -261.83 0 0 237.88 17.64 0 0 -17.64zm226.56 -706.9l-17.64 0 0 222.78 -191.28 0 0 -205.14 208.92 0 0 -17.64 -17.64 0 17.64 0 0 -17.64 -244.2 0 0 275.7 261.83 0 0 -275.7 -17.63 0 0 17.64zm0 491.99l0 -17.64 -208.92 0 0 -203.98 191.28 0 0 221.62 17.64 0 0 -17.64 0 17.64 17.63 0 0 -256.9 -261.83 0 0 274.54 261.83 0 0 -17.64 -17.63 0zm14.42 -239.26l0 17.64 203.27 0 0 203.98 -185.63 0 0 -221.62 -17.64 0 0 17.64 0 -17.64 -17.64 0 0 256.9 256.19 0 0 -274.54 -256.19 0 0 17.64 17.64 0zm220.91 -12.31l0 -17.64 -203.27 0 0 -205.14 185.63 0 0 222.78 17.64 0 0 -17.64 0 17.64 17.64 0 0 -258.06 -256.19 0 0 275.7 256.19 0 0 -17.64 -17.64 0zm14.43 -252.73l0 -17.64 -508.39 0 0 766.8 258.63 0 0 -17.64 -17.64 0 0 21.94 49.7 0 0 -4.3 235.34 0 0 -766.8 -17.64 0 0 17.64 -17.64 0 0 713.88 -235.34 0 0 21.94 17.64 0 0 -17.63 -14.42 0 0 17.63 17.63 0 0 -21.94 -240.98 0 0 -696.24 473.11 0 0 -17.64 -17.64 0 17.64 0z"/>
  <polygon class="fil1" points="11760.9,9747.07 11760.9,9729.43 8489.13,9729.43 8489.13,5033.96 11743.26,5033.96 11743.26,9747.07 11760.9,9747.07 11760.9,9729.43 11760.9,9747.07 11778.54,9747.07 11778.54,4998.68 8453.86,4998.68 8453.86,9764.71 11778.54,9764.71 11778.54,9747.07 "/>
  <path class="fil1" d="M11684.91 5004.61l0 -17.64 -3387.58 0c-6.74,0 -12.42,-5.68 -12.42,-12.42 0,-6.74 5.72,-12.42 12.42,-12.42l3387.58 0c6.71,0 12.42,5.72 12.46,12.42 -0.04,6.7 -5.72,12.42 -12.46,12.42l0 35.28c26.35,-0.07 47.66,-21.35 47.73,-47.7 -0.07,-26.35 -21.38,-47.62 -47.73,-47.69l-3387.58 0c-26.39,0.03 -47.63,21.34 -47.7,47.69 0.07,26.35 21.35,47.63 47.7,47.7l3387.58 0 0 -17.64z"/>
  <path class="fil1" d="M2985.64 7168.44l0 -17.64 -233.34 0 1510.87 -1729.84 1510.88 1729.84 -233.89 0 3.88 20.89c0.6,3.24 0.92,6.66 0.92,10.19l-0.14 4.23 -1.17 18.74 349.39 0 -1609.48 -1842.77 -7.09 -8.12 -13.3 -15.17 -1629.84 1866.06 373.58 0 -3.71 -20.75 -0.6 -6.73 0.49 -6.28 3.05 -20.29 -20.5 0 0 17.64 -17.45 -2.65c-0.56,3.78 -0.86,7.66 -0.86,11.58 0,4.26 0.35,8.6 1.14,12.98l17.36 -3.14 0 -17.64 -274.85 0 1565.49 -1792.39 -13.3 -11.58 -13.26 11.61 7.09 8.08 1558.36 1784.28 -252.94 0 0 17.64 17.6 1.09 0.21 -6.42c0,-5.5 -0.45,-11.08 -1.51,-16.69l-17.32 3.25 0 17.64 290.3 0 -1588.53 -1818.75 -1588.51 1818.75 310.98 0 0 -17.64 -17.45 -2.65 17.45 2.65z"/>
  <polygon class="fil1" points="5552.15,7164.31 5565.66,7152.99 4263.17,5600.94 2936.37,7181.95 2966.75,7181.95 2966.75,9782.98 5559.6,9782.98 5559.6,7164.31 5541.96,7164.31 5541.96,7181.95 5589.97,7181.95 5565.66,7152.99 5552.15,7164.31 5552.15,7146.67 5524.32,7146.67 5524.32,9747.7 3002.02,9747.7 3002.02,7146.67 2974.2,7146.67 2974.2,7164.31 2987.72,7175.67 4263.17,5655.84 5538.64,7175.67 5552.15,7164.31 5552.15,7146.67 "/>
  <polygon class="fil1" points="4790.22,9758.29 4790.22,9740.65 3794.16,9740.65 3794.16,7945.65 4772.58,7945.65 4772.58,9758.29 4790.22,9758.29 4790.22,9740.65 4790.22,9758.29 4807.86,9758.29 4807.86,7910.37 3758.88,7910.37 3758.88,9775.93 4807.86,9775.93 4807.86,9758.29 "/>
  <path class="fil1" d="M3597.91 7652.63l17.63 0 0 -184.96 185.6 0 0 167.32 -203.23 0 0 17.64 17.63 0 -17.63 0 0 17.64 238.51 0 0 -237.88 -256.15 0 0 237.88 17.64 0 0 -17.64zm-241.03 0l17.64 0 0 -184.96 191.32 0 0 167.32 -208.96 0 0 17.64 17.64 0 -17.64 0 0 17.64 244.24 0 0 -237.88 -261.88 0 0 237.88 17.64 0 0 -17.64zm226.6 -706.9l-17.64 0 0 222.78 -191.32 0 0 -205.14 208.96 0 0 -17.64 -17.64 0 17.64 0 0 -17.64 -244.24 0 0 275.7 261.88 0 0 -275.7 -17.64 0 0 17.64zm0 491.99l0 -17.64 -208.96 0 0 -203.98 191.32 0 0 221.62 17.64 0 0 -17.64 0 17.64 17.64 0 0 -256.9 -261.88 0 0 274.53 261.88 0 0 -17.63 -17.64 0zm14.43 -239.26l0 17.64 203.23 0 0 203.98 -185.6 0 0 -221.62 -17.63 0 0 17.64 0 -17.64 -17.64 0 0 256.89 256.15 0 0 -274.53 -256.15 0 0 17.64 17.64 0zm220.87 -12.31l0 -17.64 -203.24 0 0 -205.14 185.6 0 0 222.78 17.64 0 0 -17.64 0 17.64 17.64 0 0 -258.06 -256.15 0 0 275.7 256.15 0 0 -17.64 -17.64 0zm14.43 -252.73l0 -17.64 -508.39 0 0 766.8 258.66 0 0 -17.64 -17.64 0 0 21.94 49.7 0 0 -4.3 235.31 0 0 -766.8 -17.64 0 0 17.64 -17.64 0 0 713.88 -235.3 0 0 21.94 17.64 0 0 -17.64 -14.43 0 0 17.64 17.64 0 0 -21.94 -241.03 0 0 -696.24 473.12 0 0 -17.64 -17.64 0 17.64 0z"/>
  <path class="fil1" d="M4262.12 7652.63l17.63 0 0 -184.96 185.6 0 0 167.32 -203.23 0 0 17.64 17.63 0 -17.63 0 0 17.64 238.51 0 0 -237.88 -256.15 0 0 237.88 17.64 0 0 -17.64zm-240.99 0l17.64 0 0 -184.96 191.28 0 0 167.32 -208.92 0 0 17.64 17.64 0 -17.64 0 0 17.64 244.2 0 0 -237.88 -261.84 0 0 237.88 17.64 0 0 -17.64zm226.56 -706.9l-17.64 0 0 222.78 -191.28 0 0 -205.14 208.92 0 0 -17.64 -17.64 0 17.64 0 0 -17.64 -244.2 0 0 275.7 261.84 0 0 -275.7 -17.64 0 0 17.64zm0 491.99l0 -17.64 -208.92 0 0 -203.98 191.28 0 0 221.62 17.64 0 0 -17.64 0 17.64 17.64 0 0 -256.9 -261.84 0 0 274.53 261.84 0 0 -17.63 -17.64 0zm14.43 -239.26l0 17.64 203.23 0 0 203.98 -185.6 0 0 -221.62 -17.63 0 0 17.64 0 -17.64 -17.64 0 0 256.89 256.15 0 0 -274.53 -256.15 0 0 17.64 17.64 0zm220.87 -12.31l0 -17.64 -203.24 0 0 -205.14 185.6 0 0 222.78 17.64 0 0 -17.64 0 17.64 17.64 0 0 -258.06 -256.15 0 0 275.7 256.15 0 0 -17.64 -17.64 0zm14.43 -252.73l0 -17.64 -508.39 0 0 766.8 258.66 0 0 -17.64 -17.64 0 0 21.94 49.7 0 0 -4.3 235.31 0 0 -766.8 -17.64 0 0 17.64 -17.64 0 0 713.88 -235.3 0 0 21.94 17.64 0 0 -17.64 -14.43 0 0 17.64 17.64 0 0 -21.94 -241.02 0 0 -696.24 473.11 0 0 -17.64 -17.64 0 17.64 0z"/>
  <path class="fil1" d="M4926.33 7652.63l17.63 0 0 -184.96 185.6 0 0 167.32 -203.23 0 0 17.64 17.63 0 -17.63 0 0 17.64 238.51 0 0 -237.88 -256.15 0 0 237.88 17.64 0 0 -17.64zm-240.99 0l17.64 0 0 -184.96 191.28 0 0 167.32 -208.92 0 0 17.64 17.64 0 -17.64 0 0 17.64 244.2 0 0 -237.88 -261.84 0 0 237.88 17.64 0 0 -17.64zm226.56 -706.9l-17.64 0 0 222.78 -191.28 0 0 -205.14 208.92 0 0 -17.64 -17.64 0 17.64 0 0 -17.64 -244.2 0 0 275.7 261.84 0 0 -275.7 -17.64 0 0 17.64zm0 491.99l0 -17.64 -208.92 0 0 -203.98 191.28 0 0 221.62 17.64 0 0 -17.64 0 17.64 17.64 0 0 -256.9 -261.84 0 0 274.53 261.84 0 0 -17.63 -17.64 0zm14.43 -239.26l0 17.64 203.23 0 0 203.98 -185.6 0 0 -221.62 -17.63 0 0 17.64 0 -17.64 -17.64 0 0 256.89 256.15 0 0 -274.53 -256.15 0 0 17.64 17.64 0zm220.87 -12.31l0 -17.64 -203.24 0 0 -205.14 185.6 0 0 222.78 17.64 0 0 -17.64 0 17.64 17.64 0 0 -258.06 -256.15 0 0 275.7 256.15 0 0 -17.64 -17.64 0zm14.46 -252.73l0 -17.64 -508.42 0 0 766.8 258.66 0 0 -17.64 -17.64 0 0 21.94 49.7 0 0 -4.3 235.34 0 0 -766.8 -17.64 0 0 17.64 -17.64 0 0 713.88 -235.33 0 0 21.94 17.64 0 0 -17.64 -14.43 0 0 17.64 17.64 0 0 -21.94 -241.02 0 0 -696.24 473.14 0 0 -17.64 -17.64 0 17.64 0z"/>
  <path class="fil1" d="M4308.33 6716.46l17.64 0 0 -251.25 251.18 0 0 -17.64 -17.61 -0.56c-4.58,136.84 -114.93,247.23 -251.81,251.81l0.6 17.64 17.64 0 -17.64 0 0.56 17.61c155.51,-5.26 280.67,-130.39 285.89,-285.9l0.6 -18.23 -304.69 0 0 304.76 18.2 -0.63 -0.56 -17.61zm-287.62 -268.89l0 17.64 251.18 0 0 251.25 17.64 0 0.6 -17.64c-136.85,-4.58 -247.23,-114.97 -251.78,-251.81l-17.64 0.56 0 17.64 0 -17.64 -17.64 0.6c5.26,155.51 130.42,280.64 285.89,285.9l18.2 0.63 0 -304.76 -304.69 0 0.6 18.23 17.64 -0.6zm268.82 -287.58l-17.64 0 0 251.18 -251.18 0 0 17.64 17.64 0.6c4.55,-136.85 114.93,-247.23 251.78,-251.82l-0.6 -17.6 -17.64 0 17.64 0 -0.57 -17.64c-155.47,5.26 -280.63,130.39 -285.89,285.86l-0.6 18.24 304.69 0 0 -304.73 -18.2 0.63 0.57 17.64zm287.62 268.82l0 -17.64 -251.18 0 0 -251.18 -17.64 0 -0.6 17.6c136.88,4.59 247.23,114.97 251.81,251.82l17.61 -0.6 0 -17.64 0 17.64 17.63 -0.6c-5.22,-155.47 -130.38,-280.6 -285.89,-285.86l-18.2 -0.63 0 304.73 304.69 0 -0.6 -18.24 -17.63 0.6zm-278.2 -288.08l0 -17.64c-173.82,0.03 -315.11,141.32 -315.14,315.1 0.03,173.81 141.32,315.1 315.14,315.14 173.81,-0.04 315.06,-141.33 315.1,-315.14 -0.04,-173.78 -141.33,-315.07 -315.1,-315.1l0 35.28c77.15,0 147.03,31.36 197.76,82.05 50.7,50.73 82.06,120.62 82.06,197.77 0,77.19 -31.36,147.07 -82.06,197.8 -50.73,50.73 -120.61,82.06 -197.76,82.06 -77.19,0 -147.04,-31.33 -197.81,-82.06 -50.69,-50.73 -82.02,-120.61 -82.05,-197.8 0.03,-77.15 31.36,-147.04 82.05,-197.77 50.77,-50.69 120.62,-82.05 197.81,-82.05l0 -17.64z"/>
  <path class="fil1" d="M3892.19 8829.6l0 17.64 775.09 0 0 -808.74 -792.73 0 0 808.74 17.64 0 0 -17.64 17.64 0 0 -755.83 722.17 0 0 738.19 -739.81 0 0 17.64 17.64 0 -17.64 0zm776.25 18.77l0 -17.64 -777.41 0 0 -775.76 759.78 0 0 793.4 17.63 0 0 -17.64 0 17.64 17.64 0 0 -828.68 -830.29 0 0 846.32 830.29 0 0 -17.64 -17.64 0z"/>
  <path class="fil2" d="M11363.64 6713.57l-2961.25 0c-71.65,0 -130.29,-58.63 -130.29,-130.28l0 -1.77c0,-71.65 58.64,-130.28 130.29,-130.28l2961.25 0c71.65,0 130.28,58.63 130.28,130.28l0 1.77c0,71.65 -58.63,130.28 -130.28,130.28z"/>
  <polygon class="fil3" points="7499.94,7074.28 8090.19,7074.28 8090.19,5074.01 7499.94,5074.01 "/>
  <path class="fil2" d="M8139.35 5139.62l-688.58 0c-36.09,0 -65.58,-29.53 -65.58,-65.62 0,-36.06 29.49,-65.58 65.58,-65.58l688.58 0c36.09,0 65.59,29.52 65.59,65.58 0,36.09 -29.5,65.62 -65.59,65.62z"/>
  <polygon class="fil2" points="4934.47,6747.15 6763.2,4653.38 8591.93,6747.15 "/>
  <polygon class="fil3" points="5274.02,9760.44 8252.42,9760.44 8252.42,6726.87 5274.02,6726.87 "/>
  <polygon class="fil3" points="7603.06,9760.44 11361.1,9760.44 11361.1,6726.87 7603.06,6726.87 "/>
  <polygon class="fil3" points="5262.17,6731.42 6763.2,4942.8 8264.27,6731.42 "/>
  <polygon class="fil2" points="6196.5,9752.22 7376.97,9752.22 7376.97,7620.77 6196.5,7620.77 "/>
  <polygon class="fil4" points="6353.21,8579.87 6694.09,8579.87 6694.09,7772.53 6353.21,7772.53 "/>
  <polygon class="fil4" points="6837.6,8579.87 7178.5,8579.87 7178.5,7772.53 6837.6,7772.53 "/>
  <polygon class="fil4" points="6353.21,9530.75 6694.09,9530.75 6694.09,8723.42 6353.21,8723.42 "/>
  <polygon class="fil4" points="6837.6,9530.75 7178.5,9530.75 7178.5,8723.42 6837.6,8723.42 "/>
  <polygon class="fil5" points="6393.25,7041.48 7114.63,7041.48 7114.63,5762.61 6393.25,5762.61 "/>
  <polygon class="fil0" points="6445.77,6948.31 7062.12,6948.31 7062.12,5855.74 6445.77,5855.74 "/>
  <path class="fil6" d="M6445.77 6514.46l0 -86.01c172.27,-192.3 346.19,-383.04 521.45,-572.7l59.44 0c-195.3,218.09 -386.15,440.13 -580.89,658.71z"/>
  <path class="fil6" d="M6445.77 6849.95l0 -106.47c208.35,-229.97 410.39,-465.63 616.34,-697.75l0 154.23c-200.48,221.44 -403.72,440.27 -616.34,649.99z"/>
  <polygon class="fil5" points="6714.84,7018.9 6754.24,7018.9 6754.24,5787.59 6714.84,5787.59 "/>
  <polygon class="fil5" points="6407.32,6201.3 7106.7,6201.3 7106.7,6152.05 6407.32,6152.05 "/>
  <polygon class="fil5" points="6407.32,6615.04 7106.7,6615.04 7106.7,6565.8 6407.32,6565.8 "/>
  <polygon class="fil5" points="8469.17,8978.16 9190.55,8978.16 9190.55,7699.31 8469.17,7699.31 "/>
  <polygon class="fil0" points="8521.73,8885.02 9138.03,8885.02 9138.03,7792.47 8521.73,7792.47 "/>
  <path class="fil6" d="M8714.35 8232.95l0 -81.49c4.09,-4.48 8.15,-8.96 12.2,-13.45l71.02 0c-27.73,31.65 -55.46,63.29 -83.22,94.94zm126.36 -144.18l-69.39 0c90.21,-99.1 180.83,-197.88 271.78,-296.3l59.48 0c-87.95,98.18 -174.98,197.17 -261.87,296.3z"/>
  <path class="fil6" d="M8844.8 8455.02l-122.09 0c92.99,-105.37 185.42,-211.35 278.13,-317.01l135.96 0c-96.45,106.51 -193.54,212.45 -292,317.01z"/>
  <path class="fil6" d="M9138.03 8088.77l-93.91 0c31.22,-35.53 62.52,-70.98 93.91,-106.37l0 106.37z"/>
  <polygon class="fil5" points="8790.76,8955.61 8830.16,8955.61 8830.16,7724.27 8790.76,7724.27 "/>
  <polygon class="fil5" points="8483.24,8138.01 9182.62,8138.01 9182.62,8088.76 8483.24,8088.76 "/>
  <polygon class="fil5" points="8483.24,8551.72 9182.62,8551.72 9182.62,8502.47 8483.24,8502.47 "/>
  <polygon class="fil5" points="9437.65,8978.16 10159.05,8978.16 10159.05,7699.31 9437.65,7699.31 "/>
  <polygon class="fil0" points="9490.18,8885.02 10106.49,8885.02 10106.49,7792.47 9490.18,7792.47 "/>
  <path class="fil6" d="M9490.18 8451.14l0 -85.97c89.25,-99.66 178.92,-198.86 269.02,-297.75l0 78.36c-89.39,102.05 -178.78,204.08 -269.02,305.36zm308.46 -350.34l0 -76.56c70.74,-77.47 141.75,-154.72 212.98,-231.77l59.4 0c-91.47,102.16 -181.99,205.21 -272.38,308.33z"/>
  <path class="fil6" d="M9759.2 8453.26l-66.46 0c22.19,-25.16 44.35,-50.34 66.46,-75.53l0 75.53z"/>
  <path class="fil6" d="M9814.94 8453.26l-16.3 0 0 -120.44c102.49,-116.91 204.69,-234.1 307.84,-350.42l0 154.27c-96.31,106.37 -193.25,212.13 -291.54,316.59z"/>
  <polygon class="fil5" points="9759.2,8955.61 9798.64,8955.61 9798.64,7724.27 9759.2,7724.27 "/>
  <polygon class="fil5" points="9451.72,8138.01 10151.11,8138.01 10151.11,8088.76 9451.72,8088.76 "/>
  <polygon class="fil5" points="9451.72,8551.72 10151.11,8551.72 10151.11,8502.47 9451.72,8502.47 "/>
  <path class="fil7" d="M6069.11 7001.79c-61.06,-31.05 -73.94,-127.35 -23.17,-173.36 50.73,-45.96 145.34,-23.7 170.21,40.11 -8.71,-68.75 -10.83,-147.07 36.65,-197.55 47.49,-50.45 158.05,-28.65 154.87,40.6 -34.67,-74.79 28.79,-175.29 111.24,-176.14 82.44,-0.81 147.91,98.43 114.72,173.89 5.64,-67.21 93.1,-107.78 153.14,-77.02 60.01,30.77 81.95,113.35 55.14,175.23 16.33,-54.33 84.59,-86.01 136.66,-63.47 52.04,22.55 75.57,94.05 47.1,143.09 51.19,-79.97 203.91,-36.16 204.89,58.81 15.74,-72.43 142.28,-47.94 158.19,24.48 15.91,72.36 -38.28,140.97 -95.32,188.31l-1225.02 0 0.7 -156.98z"/>
  <path class="fil7" d="M10026.22 9710.2c-61.06,-31.04 -73.94,-127.31 -23.21,-173.32 50.8,-45.96 145.38,-23.74 170.28,40.08 -8.71,-68.72 -10.86,-147.04 36.62,-197.52 47.49,-50.45 158.05,-28.65 154.84,40.6 -34.68,-74.78 28.82,-175.33 111.26,-176.14 82.45,-0.84 147.89,98.43 114.73,173.85 5.68,-67.17 93.09,-107.74 153.1,-76.97 60.05,30.76 81.99,113.34 55.18,175.18 16.33,-54.29 84.59,-86 136.63,-63.42 52.07,22.5 75.6,94.05 47.13,143.08 51.19,-79.97 203.9,-36.16 204.89,58.81 15.74,-72.43 142.28,-47.94 158.19,24.48 15.91,72.36 -38.24,140.97 -95.29,188.32l-1225.05 0 0.7 -157.03z"/>
  <polygon class="fil5" points="5908.04,7275.76 7618.55,7275.76 7618.55,6976.96 5908.04,6976.96 "/>
  <polygon class="fil8" points="8469.17,8455.02 8264.27,8455.02 8264.27,6731.42 8714.35,6731.42 8714.35,7699.3 8469.17,7699.3 "/>
  <polygon class="fil5" points="8521.73,8455.02 8469.17,8455.02 8469.17,7699.3 8714.35,7699.3 8714.35,7792.47 8521.73,7792.47 8521.73,8088.77 8483.24,8088.77 8483.24,8138.01 8521.73,8138.01 "/>
  <path class="fil9" d="M8714.35 8455.02l-192.62 0 0 -317.01 192.62 0 0 13.45c-64.42,71.05 -128.66,142.27 -192.62,213.71l0 85.97c64.52,-72.42 128.62,-145.27 192.62,-218.19l0 222.07zm0 -366.25l-192.62 0 0 -296.3 192.62 0 0 296.3z"/>
  <path class="fil10" d="M8521.73 8451.14l0 -85.97c63.96,-71.44 128.2,-142.66 192.62,-213.71l0 81.49c-64,72.92 -128.1,145.77 -192.62,218.19z"/>
  <polygon class="fil5" points="8714.35,8138.01 8483.24,8138.01 8483.24,8088.77 8714.35,8088.77 "/>
  <polygon class="fil9" points="5266.61,7164.07 5274.03,7164.07 5274.03,7003.69 5266.61,7003.69 "/>
  <polygon class="fil8" points="5274.02,7164.07 5533.88,7164.07 5533.88,7003.69 5274.02,7003.69 "/>
  <polygon class="fil9" points="5266.61,7698.56 5274.03,7698.56 5274.03,7538.23 5266.61,7538.23 "/>
  <polygon class="fil8" points="5274.02,7698.56 5533.88,7698.56 5533.88,7538.23 5274.02,7538.23 "/>
  <polygon class="fil9" points="5266.61,8233.12 5274.03,8233.12 5274.03,8072.75 5266.61,8072.75 "/>
  <polygon class="fil8" points="5274.02,8233.12 5533.88,8233.12 5533.88,8072.75 5274.02,8072.75 "/>
  <polygon class="fil9" points="5266.61,8767.65 5274.03,8767.65 5274.03,8607.28 5266.61,8607.28 "/>
  <polygon class="fil8" points="5274.02,8767.65 5533.88,8767.65 5533.88,8607.28 5274.02,8607.28 "/>
  <polygon class="fil9" points="5266.61,9302.18 5274.03,9302.18 5274.03,9141.81 5266.61,9141.81 "/>
  <polygon class="fil8" points="5274.02,9302.18 5533.88,9302.18 5533.88,9141.81 5274.02,9141.81 "/>
  <polygon class="fil8" points="7966,7164.07 8233.26,7164.07 8233.26,7003.69 7966,7003.69 "/>
  <polygon class="fil8" points="7966,7698.56 8233.26,7698.56 8233.26,7538.23 7966,7538.23 "/>
  <polygon class="fil8" points="7966,8233.12 8233.26,8233.12 8233.26,8072.75 7966,8072.75 "/>
  <polygon class="fil8" points="11066.28,7164.07 11333.55,7164.07 11333.55,7003.69 11066.28,7003.69 "/>
  <polygon class="fil8" points="11066.28,7698.56 11333.55,7698.56 11333.55,7538.23 11066.28,7538.23 "/>
  <polygon class="fil8" points="11127.49,8233.12 11333.55,8233.12 11333.55,8072.75 11127.49,8072.75 "/>
  <polygon class="fil5" points="10406.09,8978.16 11127.48,8978.16 11127.48,7699.31 10406.09,7699.31 "/>
  <polygon class="fil0" points="10458.66,8885.02 11074.93,8885.02 11074.93,7792.47 10458.66,7792.47 "/>
  <path class="fil6" d="M10458.66 8451.14l0 -85.97c172.19,-192.3 346.18,-383.08 521.4,-572.7l59.41 0c-195.26,218.09 -386.15,440.12 -580.81,658.67z"/>
  <path class="fil6" d="M10783.39 8453.26l-122.2 0c138.21,-156.67 275.09,-314.54 413.73,-470.86l0 154.27c-96.3,106.37 -193.25,212.13 -291.53,316.59z"/>
  <polygon class="fil5" points="10727.69,8955.61 10767.08,8955.61 10767.08,7724.27 10727.69,7724.27 "/>
  <polygon class="fil5" points="10420.17,8138.01 11119.55,8138.01 11119.55,8088.76 10420.17,8088.76 "/>
  <polygon class="fil5" points="10420.17,8551.72 11119.55,8551.72 11119.55,8502.47 10420.17,8502.47 "/>
  <polygon class="fil1" points="13847.19,9724.17 13847.19,9706.54 11793.46,9706.54 11793.46,4575.42 13829.55,4575.42 13829.55,9724.17 13847.19,9724.17 13847.19,9706.54 13847.19,9724.17 13864.83,9724.17 13864.83,4540.14 11758.18,4540.14 11758.18,9741.81 13864.83,9741.81 13864.83,9724.17 "/>
  <path class="fil1" d="M12637.27 5478.74l-279.82 0 0 -644.45 279.82 0 0 644.45zm-612.39 -644.45l311.51 0 0 644.45 -311.51 0 0 -644.45zm-21.06 -22.76l0 689.96 654.51 0 0 -689.96 -654.51 0z"/>
  <path class="fil1" d="M13566.31 5478.74l-279.82 0 0 -644.45 279.82 0 0 644.45zm-612.39 -644.45l311.51 0 0 644.45 -311.51 0 0 -644.45zm-21.06 -22.76l0 689.96 654.51 0 0 -689.96 -654.51 0z"/>
  <path class="fil1" d="M12637.27 6470.96l-279.82 0 0 -644.45 279.82 0 0 644.45zm-612.39 -644.45l311.51 0 0 644.45 -311.51 0 0 -644.45zm-21.06 -22.76l0 689.97 654.51 0 0 -689.97 -654.51 0z"/>
  <path class="fil1" d="M13566.31 6470.96l-279.82 0 0 -644.45 279.82 0 0 644.45zm-612.39 -644.45l311.51 0 0 644.45 -311.51 0 0 -644.45zm-21.06 -22.76l0 689.97 654.51 0 0 -689.97 -654.51 0z"/>
  <path class="fil1" d="M12637.27 7463.19l-279.82 0 0 -644.46 279.82 0 0 644.46zm-612.39 -644.46l311.51 0 0 644.46 -311.51 0 0 -644.46zm-21.06 -22.75l0 689.96 654.51 0 0 -689.96 -654.51 0z"/>
  <path class="fil1" d="M13566.31 7463.19l-279.82 0 0 -644.46 279.82 0 0 644.46zm-612.39 -644.46l311.51 0 0 644.46 -311.51 0 0 -644.46zm-21.06 -22.75l0 689.96 654.51 0 0 -689.96 -654.51 0z"/>
  <path class="fil1" d="M12637.27 8455.41l-279.82 0 0 -644.46 279.82 0 0 644.46zm-612.39 -644.46l311.51 0 0 644.46 -311.51 0 0 -644.46zm-21.06 -22.75l0 689.96 654.51 0 0 -689.96 -654.51 0z"/>
  <path class="fil1" d="M13566.31 8455.41l-279.82 0 0 -644.46 279.82 0 0 644.46zm-612.39 -644.46l311.51 0 0 644.46 -311.51 0 0 -644.46zm-21.06 -22.75l0 689.96 654.51 0 0 -689.96 -654.51 0z"/>
  <path class="fil1" d="M12637.27 9447.63l-279.82 0 0 -644.45 279.82 0 0 644.45zm-612.39 -644.45l311.51 0 0 644.45 -311.51 0 0 -644.45zm-21.06 -22.76l0 689.93 654.51 0 0 -689.93 -654.51 0z"/>
  <path class="fil1" d="M13566.31 9447.63l-279.82 0 0 -644.45 279.82 0 0 644.45zm-612.39 -644.45l311.51 0 0 644.45 -311.51 0 0 -644.45zm-21.06 -22.76l0 689.93 654.51 0 0 -689.93 -654.51 0z"/>
  <path class="fil7" d="M7807 14506.92c-135.96,0 -263.7,35.14 -374.82,96.63 -74.44,-551.71 -520.03,-985.7 -1077.46,-1041.68 1.52,-19.76 2.54,-39.62 2.54,-59.76 0,-428.03 -346.99,-774.99 -775.02,-774.99 -240.1,0 -454.66,109.22 -596.82,280.64 -189.23,-122.34 -414.55,-193.64 -656.63,-193.64 -355.43,0 -675.03,153.13 -896.58,396.96 1222.69,1446.06 3037.46,2375.04 5070.38,2412.81 50.85,-103.13 79.43,-219.19 79.43,-341.95 0,-428.03 -346.99,-775.02 -775.02,-775.02z"/>
  <path class="fil7" d="M10174.21 14506.92c136,0 263.74,35.14 374.83,96.63 74.43,-551.71 520.06,-985.7 1077.49,-1041.68 -1.52,-19.76 -2.54,-39.62 -2.54,-59.76 0,-428.03 346.99,-774.99 774.98,-774.99 240.14,0 454.7,109.22 596.83,280.64 189.26,-122.34 414.55,-193.64 656.66,-193.64 152.02,0 297.48,28.06 431.54,79.2 -1085.77,1450.91 -2737.17,2453.7 -4627.13,2682.25 -37.14,-90.55 -57.64,-189.7 -57.64,-293.63 0,-428.03 346.96,-775.02 774.98,-775.02z"/>
  <path class="fil11" d="M7596.37 15547.31l-3 -0.46c-55.27,-8.46 -110.33,-17.58 -165.16,-27.36l-3.55 -0.64c-27.09,-4.85 -53.96,-10.34 -80.93,-15.51 43.44,-72.17 95.17,-146.1 156.74,-219.99 79.06,-94.87 162.74,-195.9 244.09,-304.02l0 588.72c-49.55,-6.45 -98.99,-13.23 -148.19,-20.74zm-2144.59 -709.17c-21.43,-11.35 -43.05,-22.39 -64.35,-33.96l-0.38 -0.2c-47.84,-25.99 -95.32,-52.55 -142.47,-79.65l-2.08 -1.2c-46.9,-26.97 -93.45,-54.49 -139.63,-82.54l-1.26 -0.76c-467.4,-284.03 -897.85,-622.84 -1282.5,-1007.43l-0.67 -0.67c-76.55,-76.56 -151.28,-154.95 -224.13,-235.07l-1.9 -2.1c-4.87,-5.37 -9.58,-10.88 -14.44,-16.26 179.49,-105.4 392.73,-166.49 621.53,-166.49 231.07,0 446.12,62.54 626.74,169.89 135.68,-150.42 340.5,-246.24 569.67,-246.24 175.65,0 337.04,56.27 463.9,150.29 -152.35,493.87 -303.01,1044.28 -408.03,1552.39z"/>
  <path class="fil11" d="M12430.68 14467.1l0 -1331.07c227.26,8.01 429.26,101.88 565.12,245.67 189.26,-107.35 414.55,-169.89 656.66,-169.89 57.28,0 113.64,3.5 168.81,10.23 -14.31,16.85 -28.34,33.92 -42.81,50.63l-1.56 1.79c-35.2,40.63 -70.88,80.83 -107.02,120.61l-0.98 1.08c-36.04,39.64 -72.54,78.84 -109.49,117.62l-2.76 2.9c-36.92,38.7 -74.28,76.98 -112.1,114.8l-1.43 1.42c-37.63,37.61 -75.7,74.78 -114.19,111.5l-3.44 3.29c-38.36,36.54 -77.14,72.65 -116.34,108.3l-3.55 3.22c-39.05,35.47 -78.51,70.48 -118.39,105.04l-3.23 2.81c-40.01,34.63 -80.42,68.82 -121.24,102.52l-4.37 3.61c-40.88,33.71 -82.15,66.95 -123.82,99.71l-2.38 1.88c-41.68,32.73 -83.75,65 -126.21,96.77l-4.74 3.54c-42.61,31.83 -85.59,63.22 -128.96,94.06l-2.23 1.58c-43.72,31.07 -87.8,61.63 -132.27,91.68l-1.95 1.33 -5.13 3.37z"/>
  <path class="fil12" d="M14561.25 8864.7c-135.01,0 -269.98,-51.5 -372.96,-154.48 -199.56,-199.57 -205.17,-518.87 -18.09,-725.91 -23.22,-52.71 -36.34,-110.84 -36.34,-172.12 0,-137.58 65.3,-259.65 166.23,-337.82 -12.31,-31.57 -19.33,-65.83 -19.33,-101.78 0,-154.9 125.59,-280.46 280.46,-280.46 154.94,0 280.49,125.56 280.49,280.46 0,35.95 -7.02,70.21 -19.33,101.78 100.96,78.17 166.26,200.24 166.26,337.82 0,61.28 -13.12,119.41 -36.37,172.12 187.11,207.04 181.5,526.34 -18.06,725.91 -103.01,102.98 -237.99,154.48 -372.96,154.48z"/>
  <path class="fil1" d="M14789.22 7860.13c-7.24,-5.25 -17.4,-3.7 -22.65,3.6l-166.02 228.25 0 -462.95c0,-8.96 -7.23,-16.23 -16.23,-16.23 -8.96,0 -16.23,7.27 -16.23,16.23l0 804.89 -166.01 -228.31c-5.33,-7.31 -15.49,-8.86 -22.69,-3.6 -7.23,5.29 -8.82,15.45 -3.56,22.68l192.26 264.41 0 1020.41c0,8.96 7.27,16.23 16.23,16.23 9,0 16.23,-7.27 16.23,-16.23l0 -1362.36 192.26 -264.37c5.26,-7.23 3.67,-17.39 -3.59,-22.65z"/>
  <path class="fil12" d="M2448 9012.94c-99.81,0 -199.61,-38.07 -275.76,-114.23 -147.56,-147.57 -151.71,-383.65 -13.37,-536.75 -17.17,-38.95 -26.87,-81.95 -26.87,-127.25 0,-101.74 48.26,-191.98 122.92,-249.77 -9.11,-23.35 -14.3,-48.68 -14.3,-75.28 0,-114.51 92.85,-207.36 207.38,-207.36 114.53,0 207.38,92.85 207.38,207.36 0,26.6 -5.18,51.93 -14.31,75.28 74.66,57.79 122.92,148.03 122.92,249.77 0,45.3 -9.7,88.3 -26.87,127.25 138.35,153.1 134.2,389.18 -13.36,536.75 -76.15,76.16 -175.97,114.23 -275.76,114.23z"/>
  <path class="fil1" d="M2616.56 8270.17c-5.34,-3.89 -12.86,-2.76 -16.73,2.64l-122.77 168.77 0 -342.3c0,-6.63 -5.36,-11.99 -11.99,-11.99 -6.65,0 -12,5.36 -12,11.99l0 595.1 -122.77 -168.77c-3.92,-5.4 -11.44,-6.56 -16.74,-2.64 -5.38,3.88 -6.55,11.39 -2.66,16.75l142.17 195.48 0 754.48c0,6.64 5.35,12 12,12 6.63,0 11.99,-5.36 11.99,-12l0 -1007.28 142.16 -195.48c3.9,-5.36 2.73,-12.87 -2.66,-16.75z"/>
  <path class="fil5" d="M12046.3 16574.88l-3917.39 0c-211.38,0 -384.35,-172.94 -384.35,-384.33l0 -7351.18c0,-211.38 172.97,-384.35 384.35,-384.35l3917.39 0c211.38,0 384.38,172.97 384.38,384.35l0 7351.18c0,211.39 -173,384.33 -384.38,384.33z"/>
  <path class="fil1" d="M11875.77 16308.67l-3576.29 0c-195.44,0 -355.35,-159.91 -355.35,-355.36l0 -6876.73c0,-195.44 159.91,-355.35 355.35,-355.35l3576.29 0c195.43,0 355.38,159.91 355.38,355.35l0 6876.73c0,195.45 -159.95,355.36 -355.38,355.36z"/>
  <path class="fil5" d="M11047.05 8958.22l-1918.86 0c-138.89,0 -252.52,-113.63 -252.52,-252.48 0,-138.85 113.63,-252.48 252.52,-252.48l1918.86 0c138.89,0 252.49,113.63 252.49,252.48 0,138.85 -113.6,252.48 -252.49,252.48z"/>
  <path class="fil5" d="M12455.8 10456.68l0 0c-45.19,0 -82.19,-36.93 -82.19,-82.19l0 -904.28c0,-45.23 37,-82.2 82.19,-82.2 45.23,0 82.2,36.97 82.2,82.2l0 904.28c0,45.26 -36.97,82.19 -82.2,82.19z"/>
  <path class="fil5" d="M12455.8 11669.32l0 0c-45.19,0 -82.19,-37.01 -82.19,-82.23l0 -904.28c0,-45.26 37,-82.23 82.19,-82.23 45.23,0 82.2,36.97 82.2,82.23l0 904.28c0,45.22 -36.97,82.23 -82.2,82.23z"/>
  <path class="fil13" d="M10549.46 8766.38l-852.73 0c-25.51,0 -46.36,-20.85 -46.36,-46.35 0,-25.51 20.85,-46.36 46.36,-46.36l852.73 0c25.47,0 46.32,20.85 46.32,46.36 0,25.5 -20.85,46.35 -46.32,46.35z"/>
  <path class="fil2" d="M11613.23 10360.8l-1416.19 0c-34.26,0 -62.3,-28.05 -62.3,-62.34l0 -0.85c0,-34.25 28.04,-62.3 62.3,-62.3l1416.19 0c34.29,0 62.33,28.05 62.33,62.3l0 0.85c0,34.29 -28.04,62.34 -62.33,62.34z"/>
  <polygon class="fil3" points="9765.45,10533.27 10047.74,10533.27 10047.74,9576.68 9765.45,9576.68 "/>
  <path class="fil2" d="M10071.24 9608.04l-329.32 0c-17.25,0 -31.36,-14.15 -31.36,-31.36 0,-17.25 14.11,-31.36 31.36,-31.36l329.32 0c17.25,0 31.39,14.11 31.39,31.36 0,17.21 -14.14,31.36 -31.39,31.36z"/>
  <polygon class="fil2" points="8538.52,10376.85 9413.13,9375.49 10287.7,10376.85 "/>
  <polygon class="fil3" points="8700.91,11817.91 10125.33,11817.91 10125.33,10367.14 8700.91,10367.14 "/>
  <polygon class="fil3" points="9814.77,11817.91 11612.03,11817.91 11612.03,10367.14 9814.77,10367.14 "/>
  <polygon class="fil3" points="8695.26,10369.33 9413.13,9513.92 10130.96,10369.33 "/>
  <polygon class="fil2" points="9142.09,11813.99 9706.63,11813.99 9706.63,10794.68 9142.09,10794.68 "/>
  <polygon class="fil4" points="9217.02,11253.32 9380.04,11253.32 9380.04,10867.21 9217.02,10867.21 "/>
  <polygon class="fil4" points="9448.72,11253.32 9611.75,11253.32 9611.75,10867.21 9448.72,10867.21 "/>
  <polygon class="fil4" points="9217.02,11708.09 9380.04,11708.09 9380.04,11321.98 9217.02,11321.98 "/>
  <polygon class="fil4" points="9448.72,11708.09 9611.75,11708.09 9611.75,11321.98 9448.72,11321.98 "/>
  <polygon class="fil5" points="9236.18,10517.61 9581.17,10517.61 9581.17,9905.99 9236.18,9905.99 "/>
  <polygon class="fil0" points="9261.29,10473.05 9556.07,10473.05 9556.07,9950.56 9261.29,9950.56 "/>
  <path class="fil6" d="M9261.29 10265.55l0 -41.1c82.38,-92.01 165.56,-183.23 249.38,-273.9l28.44 0c-93.38,104.28 -184.68,210.47 -277.82,315z"/>
  <path class="fil6" d="M9261.29 10425.99l0 -50.91c99.63,-109.96 196.29,-222.7 294.78,-333.69l0 73.77c-95.88,105.9 -193.07,210.57 -294.78,310.83z"/>
  <polygon class="fil5" points="9389.99,10506.78 9408.82,10506.78 9408.82,9917.96 9389.99,9917.96 "/>
  <polygon class="fil5" points="9242.91,10115.79 9577.39,10115.79 9577.39,10092.23 9242.91,10092.23 "/>
  <polygon class="fil5" points="9242.91,10313.67 9577.39,10313.67 9577.39,10290.1 9242.91,10290.1 "/>
  <polygon class="fil5" points="10229,11443.82 10573.99,11443.82 10573.99,10832.22 10229,10832.22 "/>
  <polygon class="fil0" points="10254.12,11399.23 10548.86,11399.23 10548.86,10876.76 10254.12,10876.76 "/>
  <path class="fil6" d="M10346.23 11087.41l0 -38.98c1.94,-2.12 3.88,-4.27 5.82,-6.42l33.97 0c-13.26,15.14 -26.53,30.27 -39.79,45.4zm60.43 -68.96l-33.2 0c43.18,-47.38 86.5,-94.62 130,-141.68l28.47 0c-42.09,46.95 -83.72,94.3 -125.27,141.68z"/>
  <path class="fil6" d="M10346.23 11259.08l0 -19.2 18.48 0c-6.17,6.39 -12.31,12.81 -18.48,19.2zm40.95 -42.76l-40.95 0 0 -18.17c45.82,-51.89 91.33,-104.1 137.02,-156.14l65.01 0c-53.09,58.67 -106.61,116.95 -161.08,174.31z"/>
  <path class="fil6" d="M10548.86 11018.45l-44.91 0c14.93,-16.97 29.92,-33.94 44.91,-50.84l0 50.84z"/>
  <polygon class="fil5" points="10382.77,11432.99 10401.61,11432.99 10401.61,10844.13 10382.77,10844.13 "/>
  <polygon class="fil5" points="10235.7,11042.01 10570.21,11042.01 10570.21,11018.45 10235.7,11018.45 "/>
  <polygon class="fil5" points="10235.7,11239.88 10570.21,11239.88 10570.21,11216.32 10235.7,11216.32 "/>
  <polygon class="fil5" points="10692.16,11443.82 11037.14,11443.82 11037.14,10832.22 10692.16,10832.22 "/>
  <polygon class="fil0" points="10717.24,11399.23 11012.02,11399.23 11012.02,10876.76 10717.24,10876.76 "/>
  <path class="fil6" d="M10717.24 11191.77l0 -41.14c82.41,-91.97 165.6,-183.2 249.38,-273.86l28.47 0c-93.45,104.28 -184.71,210.43 -277.85,315z"/>
  <path class="fil6" d="M10717.24 11352.21l0 -50.91c99.66,-109.96 196.29,-222.71 294.78,-333.69l0 73.77c-95.88,105.9 -193.07,210.5 -294.78,310.83z"/>
  <polygon class="fil5" points="10845.94,11432.99 10864.77,11432.99 10864.77,10844.13 10845.94,10844.13 "/>
  <polygon class="fil5" points="10698.86,11042.01 11033.33,11042.01 11033.33,11018.45 10698.86,11018.45 "/>
  <polygon class="fil5" points="10698.86,11239.88 11033.33,11239.88 11033.33,11216.32 10698.86,11216.32 "/>
  <path class="fil7" d="M9081.17 10498.63c-29.21,-14.85 -35.35,-60.93 -11.08,-82.94 24.27,-21.98 69.5,-11.32 81.42,19.19 -4.16,-32.84 -5.22,-70.34 17.5,-94.44 22.72,-24.16 75.56,-13.72 74.05,19.37 -16.55,-35.74 13.79,-83.82 53.19,-84.21 39.44,-0.39 70.74,47.06 54.9,83.15 2.68,-32.14 44.55,-51.54 73.23,-36.83 28.72,14.71 39.16,54.19 26.36,83.79 7.83,-25.97 40.49,-41.14 65.37,-30.34 24.9,10.76 36.12,44.98 22.5,68.44 24.52,-38.28 97.55,-17.29 98.04,28.11 7.51,-34.64 67.98,-22.89 75.6,11.71 7.62,34.65 -18.27,67.42 -45.58,90.07l-585.82 0 0.32 -75.07z"/>
  <path class="fil7" d="M10973.61 11793.92c-29.18,-14.85 -35.35,-60.92 -11.05,-82.9 24.24,-22.01 69.47,-11.36 81.39,19.15 -4.16,-32.87 -5.19,-70.3 17.5,-94.47 22.75,-24.13 75.6,-13.69 74.08,19.4 -16.61,-35.77 13.8,-83.82 53.2,-84.24 39.44,-0.35 70.73,47.06 54.86,83.19 2.71,-32.14 44.52,-51.55 73.27,-36.83 28.68,14.71 39.16,54.18 26.35,83.78 7.8,-25.96 40.47,-41.13 65.34,-30.34 24.87,10.76 36.16,44.98 22.54,68.44 24.48,-38.28 97.54,-17.29 98,28.12 7.51,-34.65 68.02,-22.93 75.64,11.71 7.62,34.61 -18.31,67.41 -45.58,90.06l-585.86 0 0.32 -75.07z"/>
  <polygon class="fil5" points="9004.15,10629.65 9822.14,10629.65 9822.14,10486.75 9004.15,10486.75 "/>
  <polygon class="fil8" points="10346.23,11816.08 10130.96,11816.08 10130.96,10369.33 10346.23,10369.33 10346.23,10832.21 10229,10832.21 10229,11443.82 10346.23,11443.82 "/>
  <polygon class="fil5" points="10346.23,11443.82 10229,11443.82 10229,10832.21 10346.23,10832.21 10346.23,10876.77 10254.12,10876.77 10254.12,11018.45 10235.7,11018.45 10235.7,11042.01 10254.12,11042.01 10254.12,11216.32 10235.7,11216.32 10235.7,11239.88 10254.12,11239.88 10254.12,11399.23 10346.23,11399.23 "/>
  <path class="fil9" d="M10346.23 11399.23l-92.11 0 0 -159.35 55.14 0c-18.31,20.54 -36.69,41.03 -55.14,61.42l0 50.91c31.08,-30.66 61.77,-61.74 92.11,-93.13l0 140.15zm-16.05 -182.91l-76.06 0 0 -174.31 92.11 0 0 6.42c-30.84,33.97 -61.53,68.05 -92.11,102.2l0 41.14c30.83,-34.65 61.52,-69.47 92.11,-104.36l0 110.74c-5.33,6.07 -10.69,12.1 -16.05,18.17zm16.05 -197.87l-92.11 0 0 -141.68 92.11 0 0 141.68z"/>
  <path class="fil10" d="M10254.12 11191.77l0 -41.14c30.58,-34.15 61.27,-68.23 92.11,-102.2l0 38.98c-30.59,34.89 -61.28,69.71 -92.11,104.36z"/>
  <path class="fil10" d="M10254.12 11352.21l0 -50.91c18.45,-20.39 36.83,-40.88 55.14,-61.42l36.97 0 0 19.2c-30.34,31.39 -61.03,62.47 -92.11,93.13zm92.11 -135.89l-16.05 0c5.36,-6.07 10.72,-12.1 16.05,-18.17l0 18.17z"/>
  <polygon class="fil5" points="10346.23,11042.01 10235.7,11042.01 10235.7,11018.45 10346.23,11018.45 "/>
  <polygon class="fil5" points="10346.23,11239.88 10235.7,11239.88 10235.7,11216.32 10346.23,11216.32 "/>
  <polygon class="fil14" points="8697.38,10576.2 8700.91,10576.2 8700.91,10499.5 8697.38,10499.5 "/>
  <polygon class="fil8" points="8700.91,10576.2 8825.19,10576.2 8825.19,10499.5 8700.91,10499.5 "/>
  <path class="fil14" d="M8700.91 10771.68c-1.17,-0.25 -2.37,-0.46 -3.53,-0.71l0 -15.84 3.53 0 0 16.55z"/>
  <path class="fil8" d="M8825.19 10831.83l-18.66 0c-24.91,-27.87 -58.95,-50.45 -105.62,-60.15l0 -16.55 124.28 0 0 76.7z"/>
  <polygon class="fil8" points="9988.33,10576.2 10116.15,10576.2 10116.15,10499.5 9988.33,10499.5 "/>
  <polygon class="fil8" points="9988.33,10831.83 10116.15,10831.83 10116.15,10755.12 9988.33,10755.12 "/>
  <polygon class="fil8" points="9988.33,11087.48 10116.15,11087.48 10116.15,11010.78 9988.33,11010.78 "/>
  <polygon class="fil8" points="9988.33,11343.11 10116.15,11343.11 10116.15,11266.45 9988.33,11266.45 "/>
  <polygon class="fil8" points="9988.33,11598.76 10116.15,11598.76 10116.15,11522.08 9988.33,11522.08 "/>
  <polygon class="fil8" points="11471.02,10576.2 11598.84,10576.2 11598.84,10499.5 11471.02,10499.5 "/>
  <polygon class="fil8" points="11471.02,10831.83 11598.84,10831.83 11598.84,10755.12 11471.02,10755.12 "/>
  <polygon class="fil8" points="11500.3,11087.48 11598.83,11087.48 11598.83,11010.78 11500.3,11010.78 "/>
  <polygon class="fil8" points="11500.3,11343.11 11598.83,11343.11 11598.83,11266.45 11500.3,11266.45 "/>
  <polygon class="fil8" points="11471.02,11598.76 11598.84,11598.76 11598.84,11522.08 11471.02,11522.08 "/>
  <polygon class="fil5" points="11155.29,11443.82 11500.31,11443.82 11500.31,10832.22 11155.29,10832.22 "/>
  <polygon class="fil0" points="11180.4,11399.23 11475.18,11399.23 11475.18,10876.76 11180.4,10876.76 "/>
  <path class="fil6" d="M11180.4 11191.77l0 -41.14c82.38,-91.97 165.6,-183.2 249.38,-273.86l28.44 0c-93.42,104.28 -184.68,210.43 -277.82,315z"/>
  <path class="fil6" d="M11180.4 11352.21l0 -50.91c99.66,-109.96 196.29,-222.71 294.79,-333.69l0 73.77c-95.89,105.9 -193.08,210.5 -294.79,310.83z"/>
  <polygon class="fil5" points="11309.1,11432.99 11327.94,11432.99 11327.94,10844.13 11309.1,10844.13 "/>
  <polygon class="fil5" points="11162.03,11042.01 11496.5,11042.01 11496.5,11018.45 11162.03,11018.45 "/>
  <polygon class="fil5" points="11162.03,11239.88 11496.5,11239.88 11496.5,11216.32 11162.03,11216.32 "/>
  <path class="fil2" d="M11354.15 12583.05l-2159.32 0c-136.52,0 -248.21,-111.69 -248.21,-248.21 0,-136.49 111.69,-248.18 248.21,-248.18l2159.32 0c136.52,0 248.21,111.69 248.21,248.18 0,136.52 -111.69,248.21 -248.21,248.21z"/>
  <polygon class="fil15" points="9368.57,12191.08 9415.25,12285.73 9519.7,12300.9 9444.14,12374.56 9461.99,12478.59 9368.57,12429.45 9275.16,12478.59 9292.97,12374.56 9217.41,12300.9 9321.87,12285.73 "/>
  <polygon class="fil15" points="9845.99,12191.08 9892.7,12285.73 9997.15,12300.9 9921.59,12374.56 9939.44,12478.59 9845.99,12429.45 9752.61,12478.59 9770.46,12374.56 9694.86,12300.9 9799.32,12285.73 "/>
  <polygon class="fil15" points="10323.44,12191.08 10370.18,12285.73 10474.6,12300.9 10399.04,12374.56 10416.89,12478.59 10323.44,12429.45 10230.06,12478.59 10247.87,12374.56 10172.31,12300.9 10276.73,12285.73 "/>
  <polygon class="fil15" points="10800.92,12191.08 10847.63,12285.73 10952.05,12300.9 10876.49,12374.56 10894.3,12478.59 10800.92,12429.45 10707.47,12478.59 10725.32,12374.56 10649.76,12300.9 10754.18,12285.73 "/>
  <polygon class="fil15" points="11278.37,12191.08 11325.04,12285.73 11429.5,12300.9 11353.9,12374.56 11371.75,12478.59 11278.37,12429.45 11184.92,12478.59 11202.77,12374.56 11127.21,12300.9 11231.66,12285.73 "/>
  <path class="fil16" d="M10107.36 13012.56l-1598.61 0c-14.96,0 -27.2,-12.24 -27.2,-27.17l0 -20.11c0,-14.95 12.24,-27.19 27.2,-27.19l1598.61 0c14.92,0 27.16,12.24 27.16,27.19l0 20.11c0,14.93 -12.24,27.17 -27.16,27.17z"/>
  <path class="fil16" d="M10107.36 13260.77l-1598.61 0c-14.96,0 -27.2,-12.24 -27.2,-27.2l0 -20.11c0,-14.95 12.24,-27.2 27.2,-27.2l1598.61 0c14.92,0 27.16,12.25 27.16,27.2l0 20.11c0,14.96 -12.24,27.2 -27.16,27.2z"/>
  <path class="fil16" d="M10107.36 13508.95l-1598.61 0c-14.96,0 -27.2,-12.24 -27.2,-27.2l0 -20.07c0,-14.96 12.24,-27.17 27.2,-27.17l1598.61 0c14.92,0 27.16,12.21 27.16,27.17l0 20.07c0,14.96 -12.24,27.2 -27.16,27.2z"/>
  <path class="fil16" d="M10107.36 13757.17l-1598.61 0c-14.96,0 -27.2,-12.25 -27.2,-27.17l0 -20.14c0,-14.92 12.24,-27.17 27.2,-27.17l1598.61 0c14.92,0 27.16,12.25 27.16,27.17l0 20.14c0,14.92 -12.24,27.17 -27.16,27.17z"/>
  <path class="fil16" d="M10107.36 14005.34l-1598.61 0c-14.96,0 -27.2,-12.2 -27.2,-27.16l0 -20.11c0,-14.92 12.24,-27.16 27.2,-27.16l1598.61 0c14.92,0 27.16,12.24 27.16,27.16l0 20.11c0,14.96 -12.24,27.16 -27.16,27.16z"/>
  <path class="fil16" d="M10107.36 14253.56l-1598.61 0c-14.96,0 -27.2,-12.21 -27.2,-27.16l0 -20.11c0,-14.97 12.24,-27.2 27.2,-27.2l1598.61 0c14.92,0 27.16,12.23 27.16,27.2l0 20.11c0,14.95 -12.24,27.16 -27.16,27.16z"/>
  <path class="fil16" d="M10107.36 14501.77l-1598.61 0c-14.96,0 -27.2,-12.24 -27.2,-27.19l0 -20.12c0,-14.91 12.24,-27.16 27.2,-27.16l1598.61 0c14.92,0 27.16,12.25 27.16,27.16l0 20.12c0,14.95 -12.24,27.19 -27.16,27.19z"/>
  <polygon class="fil17" points="10384.57,15736.21 11916.15,15736.21 11916.15,12954.27 10384.57,12954.27 "/>
  <polygon class="fil7" points="10384.57,12954.28 11916.16,12954.28 11916.16,14105.67 "/>
  <polygon class="fil7" points="10395.97,13188.56 11347.06,13935.85 11364.03,14751.08 10395.97,14785.05 "/>
  <polygon class="fil7" points="10395.97,14937.92 11448.97,14937.92 11924.52,15515.34 11924.52,15736.21 10384.57,15736.21 "/>
  <polygon class="fil7" points="11907.55,14224.56 11567.86,14241.56 11567.86,14785.05 11924.52,15260.56 "/>
  <path class="fil2" d="M11227.54 13630.27c0,-86.64 -70.24,-156.84 -156.85,-156.84 -86.61,0 -156.84,70.2 -156.84,156.84 0,11.36 1.27,22.4 3.56,33.09 12.95,143.02 149.79,374.72 149.79,374.72l2.54 0c0,0 130,-175.43 157.37,-391.33l-0.42 -0.5c0.56,-5.25 0.85,-10.58 0.85,-15.98z"/>
  <path class="fil3" d="M11169.86 13615c0,54.78 -44.38,99.13 -99.17,99.13 -54.79,0 -99.13,-44.35 -99.13,-99.13 0,-54.79 44.34,-99.17 99.13,-99.17 54.79,0 99.17,44.38 99.17,99.17z"/>
  <polygon class="fil15" points="8449.27,15680.79 10110.56,15680.79 10110.56,14786.29 8449.27,14786.29 "/>
  <path class="fil3" d="M9339.19 15363.83c19.96,-6.64 30.16,-18.64 30.44,-35.96 -0.14,-7.23 -2.47,-13.65 -6.95,-19.22 -4.48,-5.58 -11.92,-10.63 -22.33,-14.99l-1.16 70.17zm-63.82 -204.2l0.99 -68.01c-9.81,2.96 -16.97,7.37 -21.52,13.08 -4.55,5.76 -6.95,12.42 -7.09,20.01 -0.78,14.95 8.43,26.59 27.62,34.92zm-5.89 371.45l0.95 -56.46c-52.6,-5.04 -94.4,-21.72 -125.34,-49.98 -30.98,-28.26 -46.5,-69.63 -46.67,-124.17l124.74 0c1.59,33.58 17.88,54.85 48.93,63.81l1.41 -88.62 -24.8 -5.4c-42.86,-9.31 -76.59,-24.83 -101.25,-46.7 -24.69,-21.8 -36.9,-51.61 -36.72,-89.44 -0.18,-28.18 6.74,-53.16 20.74,-74.99 14.04,-21.84 33.62,-39.48 58.84,-52.96 25.19,-13.41 54.4,-21.76 87.67,-24.9l0.95 -55.07 67.07 0 -0.92 56.27c47.27,6.28 84.38,23.27 111.41,50.9 27.02,27.66 40.64,62.44 40.78,104.57l-125.73 0c-1.73,-20.99 -11.08,-35.39 -28.12,-43.28l-1.41 82.47 10.65 2.37c53.41,11.49 91.9,29.88 115.5,55.16 23.64,25.3 35.53,56.42 35.7,93.21 -0.17,43.65 -14.88,78.07 -44.2,103.26 -29.28,25.22 -69.99,39.87 -122.13,43.96l-0.95 55.99 -67.1 0z"/>
  <path class="fil18" d="M8732.62 10799.23c0,0 -303,-363.57 -1009.93,1131.15l-20.22 -1737.08c0,0 -484.75,201.96 -646.35,424.14 -161.58,222.18 -484.76,989.76 -626.15,1131.15 -139.24,139.21 -1199.06,3138.13 -1115.62,4348.3l1813.84 0c25.96,-181.71 109.01,-497.58 372.28,-813.54 404.01,-484.78 929.15,-1131.15 646.4,-2060.29 0,0 181.75,-464.57 323.14,-727.15 141.43,-262.57 787.76,-1292.68 262.61,-1696.68z"/>
  <path class="fil19" d="M7944.13 14685.36l0 0c162.35,-271.68 282.96,-583.11 282.89,-944.49 0.07,361.38 -120.54,672.81 -282.89,944.49zm526.09 -2189.8c0.04,-0.07 0.04,-0.1 0.08,-0.18 -0.04,0.08 -0.04,0.11 -0.08,0.18z"/>
  <path class="fil20" d="M7255.01 15671.48c-263.38,-18.46 -1614.91,-113.62 -1917.35,-148.2 39.8,-342.55 118.93,-737.98 217.39,-1141.24 4.51,18.3 8.92,36.62 13.93,54.82 120.69,436.56 451.91,801.05 914.51,801.01 38.52,0 78,-2.53 118.32,-7.76 586.81,-76.12 1043.87,-697.64 1207.52,-1228.72 108.3,-351.4 70.42,-736.81 204.37,-1080.73 64.59,-165.81 181.39,-312.49 272.94,-464.26 104.84,-173.78 203.16,-351.75 288.68,-535.9 119.31,-256.89 231.98,-533.44 272.24,-817.56 9.45,-24.59 18.31,-51.69 26.45,-81.53 0,0 -0.03,-28.51 -8.46,-66.5 254.32,467.01 -269.03,1306.27 -395.25,1540.47 -0.04,0.08 -0.04,0.11 -0.08,0.18 -0.07,0.11 -0.14,0.25 -0.21,0.35l0 0c-141.39,262.58 -323.14,727.15 -323.14,727.15l0 0c55.77,183.3 80.11,355.6 80.15,517.81 0.07,361.38 -120.54,672.81 -282.89,944.49 -61.92,103.58 -129.9,201.36 -199.57,293.97 -81.35,108.12 -165.03,209.15 -244.09,304.02 -61.7,74.05 -113.52,148.14 -157.02,220.46 -34.43,57.26 -63.67,113.41 -88.44,167.67z"/>
  <path class="fil21" d="M7359.12 12596.88c49.46,-117.12 107.52,-229.59 167.74,-340.93 61.03,-110.8 124.18,-220.55 195.83,-325.57 -49.53,117.08 -107.6,229.58 -167.75,340.92 -60.99,110.88 -124.1,220.59 -195.82,325.58z"/>
  <path class="fil21" d="M7215.29 10619.91c-15.17,0 -29.28,-3.24 -43.04,-7.48 -20.04,-7.26 -39.34,-16.65 -55.53,-35.38 7.8,-1.69 15.24,-2.43 22.47,-2.43 15.24,0 29.39,3.21 43.18,7.44 20.04,7.16 39.37,16.62 55.53,35.38 -7.83,1.73 -15.34,2.47 -22.61,2.47z"/>
  <path class="fil21" d="M7197.51 10718.41c-30.94,-6.46 -56.16,-20.99 -79.98,-37.43 -23.28,-17.29 -45.19,-36.41 -61.41,-63.54 30.9,6.56 56.12,21.1 80.01,37.5 23.28,17.18 45.22,36.34 61.38,63.47z"/>
  <path class="fil21" d="M8449.83 11748.59c-46.81,-12.63 -88.61,-33.76 -129.25,-56.9 -40.15,-23.99 -79.1,-50.06 -113.14,-84.49 46.78,12.63 88.58,33.76 129.26,56.83 40.18,23.99 79.13,49.99 113.13,84.56z"/>
  <path class="fil21" d="M8409.44 11869.77c-53.44,-15.91 -101.99,-40.36 -149.33,-66.89 -46.85,-27.44 -92.6,-56.83 -133.46,-94.72 53.42,15.98 101.96,40.46 149.34,66.92 46.88,27.34 92.6,56.73 133.45,94.69z"/>
  <path class="fil22" d="M8697.38 10774.29c-4.09,-1.94 -8.54,-3.78 -13.34,-5.47 4.55,0.6 9,1.34 13.34,2.15l0 3.32z"/>
  <path class="fil3" d="M8864.95 10952.16c-24.13,-43.64 -55.11,-84.03 -93.91,-120.33l35.49 0c32.88,36.83 49.77,82.86 58.42,120.33z"/>
  <path class="fil23" d="M8700.91 10776.02c-1.13,-0.6 -2.33,-1.17 -3.53,-1.73l0 -3.32c1.16,0.25 2.36,0.46 3.53,0.71l0 4.34z"/>
  <path class="fil24" d="M8806.53 10831.83l-35.49 0c-12.03,-11.26 -24.84,-22.12 -38.42,-32.6 0,0 -10.37,-12.42 -31.71,-23.21l0 -4.34c46.67,9.7 80.71,32.28 105.62,60.15z"/>
  <path class="fil22" d="M8478.94 10812.67c7.05,-8.64 11.29,-13.44 11.29,-13.44 11.43,-4.2 22.54,-7.97 33.3,-11.29 -14.15,6.74 -29,14.89 -44.59,24.73z"/>
  <path class="fil25" d="M8587.28 11332.84c-66.71,0 -116.67,-28.33 -117.27,-28.64 0.6,0.31 50.49,28.54 117.13,28.54 21.59,0 44.9,-2.97 68.89,-10.76 -42.97,-121.61 -124.25,-241.8 -209.94,-241.8 -34.67,0 -70.06,19.65 -103.92,66.85 7.72,60.82 43.07,117.13 126.36,156.46 -265.92,-125.59 -44.06,-423.93 10.41,-490.82 15.59,-9.84 30.44,-17.99 44.59,-24.73 48.05,-14.92 89.46,-21.34 125.27,-21.34 12.42,0 24.17,0.77 35.24,2.22 4.8,1.69 9.25,3.53 13.34,5.47 1.2,0.56 2.4,1.13 3.53,1.73 21.34,10.79 31.71,23.21 31.71,23.21 13.58,10.48 26.39,21.34 38.42,32.6 38.8,36.3 69.78,76.69 93.91,120.33 0.21,0.92 0.39,1.83 0.6,2.75 -1.2,-2.22 -2.44,-4.41 -3.67,-6.63 -2.15,51.75 -7.06,103.33 -14.32,154.66 -72.11,187.57 -178.72,229.9 -260.28,229.9z"/>
  <path class="fil26" d="M8847.56 11102.94c7.26,-51.33 12.17,-102.91 14.32,-154.66 1.23,2.22 2.47,4.41 3.67,6.63 8.43,37.99 8.46,66.5 8.46,66.5 -8.14,29.84 -17,56.94 -26.45,81.53z"/>
  <path class="fil25" d="M8469.31 11303.88c-0.18,-0.11 -0.36,-0.21 -0.57,-0.28 0.21,0.07 0.39,0.17 0.57,0.28z"/>
  <path class="fil25" d="M8470.01 11304.2l0 0c-0.21,-0.11 -0.46,-0.22 -0.7,-0.32 0.24,0.1 0.46,0.21 0.7,0.32l0 0zm-1.27 -0.6c-0.07,-0.04 -0.14,-0.07 -0.21,-0.11 0.07,0.04 0.14,0.07 0.21,0.11z"/>
  <path class="fil27" d="M8587.14 11332.74c-66.64,0 -116.53,-28.23 -117.13,-28.54l0 0c-0.24,-0.11 -0.46,-0.22 -0.7,-0.32 -0.18,-0.11 -0.36,-0.21 -0.57,-0.28 -0.07,-0.04 -0.14,-0.07 -0.21,-0.11 -83.29,-39.33 -118.64,-95.64 -126.36,-156.46 33.86,-47.2 69.25,-66.85 103.92,-66.85 85.69,0 166.97,120.19 209.94,241.8 -23.99,7.79 -47.3,10.76 -68.89,10.76z"/>
  <path class="fil15" d="M7299.57 15913.48l0 -238.89c0,0 -1911.21,-132.72 -2017.4,-159.29 -106.18,-26.52 -106.18,291.99 -106.18,291.99 0,0 -424.71,1380.31 -451.24,1831.6l2574.82 0c0,0 53.09,-1566.13 0,-1725.41z"/>
  <path class="fil28" d="M7299.57 15913.48l0 -17.63 0.88 0.02 -0.88 17.61zm-2123.58 -106.12l0 -0.41c0,0.25 0,0.34 0,0.34 0,0 0,0.04 0,0.07z"/>
  <path class="fil29" d="M5459.05 16400.56l-35.27 0c0,-114.87 76.02,-454.8 99.76,-558.24l-348.44 -17.41 0.89 -17.55c0,-0.03 0,-0.07 0,-0.07 0,0 0,-0.09 0,-0.34l0.88 -17.26 2122.7 106.16 0 17.63 -0.88 17.6 -1739.34 -86.95c-21.59,93.94 -100.3,444.39 -100.3,556.43z"/>
  <polygon class="fil29" points="6228.89,16746.22 6193.61,16745.09 6220.17,15895.64 6255.38,15896.73 "/>
  <path class="fil29" d="M6945.48 16535.05l-35.1 -3.5c25.93,-259.43 -51.93,-601.42 -52.74,-604.84l34.4 -7.91c0.77,3.46 79.97,350.99 53.44,616.25z"/>
  <path class="fil0" d="M15773.22 5221.25c24.98,-27.55 40.32,-64 40.32,-104.11 0,-85.69 -69.43,-155.11 -155.12,-155.11 -22.82,0 -44.45,5.04 -63.95,13.9 -37.54,-49.15 -96.74,-80.9 -163.34,-80.9 -4.3,0 -8.57,0.18 -12.81,0.43 -14.88,-98.78 -100.15,-174.52 -203.09,-174.52 -105.13,0 -191.73,78.99 -203.91,180.83 -11.78,-2.11 -23.95,-3.28 -36.33,-3.28 -113.45,0 -205.39,91.97 -205.39,205.46 0,43.6 13.62,84.03 36.83,117.3l966.79 0z"/>
  <path class="fil0" d="M13240.27 2910.66c16.76,-23.35 26.71,-51.96 26.71,-82.9 0,-78.78 -63.85,-142.63 -142.63,-142.63 -20.99,0 -40.85,4.62 -58.81,12.8 -34.53,-45.22 -88.97,-74.4 -150.21,-74.4 -3.95,0 -7.87,0.14 -11.75,0.39 -13.72,-90.84 -92.07,-160.48 -186.76,-160.48 -59.86,0 -113.2,27.87 -147.78,71.37 -9.87,-2.15 -20.07,-3.39 -30.55,-3.39 -72.1,0 -131.58,53.59 -141.14,123.05 -18.49,11.33 -34.86,25.76 -48.44,42.55 -17.43,-7.62 -36.69,-11.89 -56.94,-11.89 -78.77,0 -142.66,63.85 -142.66,142.63 0,30.94 9.98,59.55 26.74,82.9l1064.22 0z"/>
  <path class="fil0" d="M3469.18 3925c16.76,-23.39 26.73,-51.96 26.73,-82.94 0,-78.74 -63.87,-142.62 -142.64,-142.62 -21,0 -40.89,4.65 -58.83,12.8 -34.5,-45.19 -88.94,-74.4 -150.2,-74.4 -3.94,0 -7.84,0.14 -11.74,0.39 -13.7,-90.84 -92.08,-160.48 -186.75,-160.48 -59.88,0 -113.21,27.9 -147.81,71.37 -9.86,-2.16 -20.05,-3.35 -30.54,-3.35 -72.11,0 -131.56,53.55 -141.14,123.01 -18.48,11.36 -34.84,25.79 -48.4,42.58 -17.47,-7.62 -36.71,-11.92 -56.98,-11.92 -78.77,0 -142.64,63.88 -142.64,142.62 0,30.98 9.97,59.55 26.74,82.94l1064.2 0z"/>
  <path class="fil3" d="M8090.42 3515.78c43.04,-47.41 69.5,-110.17 69.5,-179.25 0,-147.49 -119.59,-267.09 -267.09,-267.09 -39.33,0 -76.51,8.72 -110.13,23.96 -64.63,-84.67 -166.55,-139.31 -281.27,-139.31 -7.38,0 -14.71,0.28 -21.98,0.74 -25.65,-170.08 -172.44,-300.5 -349.71,-300.5 -181.01,0 -330.16,136 -351.08,311.4 -20.32,-3.64 -41.17,-5.65 -62.55,-5.65 -195.37,0 -353.7,158.37 -353.7,353.7 0,75.11 23.5,144.71 63.43,202l1664.58 0z"/>
  <path class="fil3" d="M4213.96 5097.85c15.59,-21.81 24.87,-48.37 24.87,-77.23 0,-73.34 -59.44,-132.82 -132.82,-132.82 -19.54,0 -38.06,4.34 -54.75,11.89 -32.17,-42.09 -82.83,-69.25 -139.88,-69.25 -3.7,0 -7.33,0.14 -10.93,0.35 -12.77,-84.59 -85.8,-149.43 -173.92,-149.43 -55.78,0 -105.45,25.96 -137.66,66.46 -9.17,-2.01 -18.66,-3.14 -28.47,-3.14 -67.12,0 -122.49,49.88 -131.42,114.58 -17.2,10.55 -32.42,23.99 -45.05,39.62 -16.26,-7.09 -34.2,-11.08 -53.08,-11.08 -73.35,0 -132.82,59.48 -132.82,132.82 0,28.86 9.28,55.42 24.89,77.23l991.04 0z"/>
  <path class="fil30" d="M10690.5 4603.46l-991.06 0c-15.55,-21.8 -24.87,-48.4 -24.87,-77.22 0,-73.38 59.45,-132.86 132.82,-132.86 18.91,0 36.83,4.03 53.06,11.12 12.63,-15.63 27.87,-29.07 45.09,-39.62 8.92,-64.7 64.27,-114.58 131.41,-114.58 9.8,0 19.26,1.13 28.47,3.14 32.2,-40.5 81.88,-66.47 137.61,-66.47 88.16,0 161.19,64.84 173.96,149.44 3.63,-0.25 7.23,-0.39 10.93,-0.39 57.05,0 107.71,27.2 139.85,69.29 16.72,-7.59 35.24,-11.93 54.78,-11.93 73.34,0 132.86,59.48 132.86,132.86 0,28.82 -9.31,55.42 -24.91,77.22z"/>
  <path class="fil31" d="M14677.95 6551.96l-520.49 0c-8.18,-11.43 -13.09,-25.4 -13.09,-40.53 0,-38.53 31.26,-69.78 69.75,-69.78 9.95,0 19.33,2.11 27.9,5.82 6.63,-8.19 14.64,-15.24 23.64,-20.78 4.69,-34.01 33.79,-60.18 69.04,-60.18 5.15,0 10.16,0.6 14.92,1.62 16.97,-21.24 43.04,-34.89 72.32,-34.89 46.32,0 84.67,34.08 91.33,78.49l5.75 -0.21c29.99,0 56.59,14.29 73.45,36.41 8.79,-3.99 18.49,-6.28 28.79,-6.28 38.49,0 69.74,31.25 69.74,69.78 0,15.13 -4.9,29.1 -13.05,40.53z"/>
 </g>
</svg>
