<?xml version="1.0" encoding="UTF-8"?>
<!DOCTYPE svg PUBLIC "-//W3C//DTD SVG 1.1//EN" "http://www.w3.org/Graphics/SVG/1.1/DTD/svg11.dtd">
<!-- Creator: CorelDRAW 2019 (64 Bit) -->
<svg xmlns="http://www.w3.org/2000/svg" xml:space="preserve" width="60px" height="67px" version="1.1" style="shape-rendering:geometricPrecision; text-rendering:geometricPrecision; image-rendering:optimizeQuality; fill-rule:evenodd; clip-rule:evenodd"
viewBox="0 0 11.99 13.47"
 xmlns:xlink="http://www.w3.org/1999/xlink">
 <defs>
  <style type="text/css">
   <![CDATA[
    .fil1 {fill:#FEFEFE}
    .fil2 {fill:#009ADD;fill-rule:nonzero}
    .fil0 {fill:#F4891F;fill-rule:nonzero}
   ]]>
  </style>
 </defs>
 <g id="Camada_x0020_1">
  <metadata id="CorelCorpID_0Corel-Layer"/>
  <path class="fil0" d="M4.35 10.07l1.65 3.4 1.64 -3.4 -3.29 0zm0.82 1.7m1.65 0m-0.82 -1.7"/>
  <circle class="fil1" cx="5.95" cy="9.15" r="0.85"/>
  <path class="fil1" d="M6 1.73l3.19 3.19 0 1.96c-0.01,0.77 -0.45,1.09 -1.14,1.15l-4.1 0c-0.82,-0.1 -1.12,-0.54 -1.15,-1.15l0 -1.96 3.2 -3.19z"/>
  <path class="fil0" d="M5.95 8.56c-0.33,0 -0.6,0.26 -0.6,0.59 0,0.34 0.27,0.6 0.6,0.6 0.33,0 0.6,-0.26 0.6,-0.6 0,-0.33 -0.27,-0.59 -0.6,-0.59z"/>
  <g id="_3147734009136">
   <polygon class="fil0" points="5.85,4.24 4.78,4.24 4.78,5.32 5.85,5.32 "/>
   <polygon class="fil0" points="7.22,5.32 7.22,4.24 6.14,4.24 6.14,5.32 "/>
   <polygon class="fil0" points="4.78,5.6 4.78,6.68 5.85,6.68 5.85,5.6 "/>
   <polygon class="fil0" points="7.22,5.6 6.14,5.6 6.14,6.68 7.22,6.68 "/>
  </g>
  <g id="_3147734011760">
   <g>
    <path class="fil2" d="M11.85 5.85c-0.03,-0.03 -5.74,-5.73 -5.85,-5.85 -0.18,0.18 -5.78,5.78 -5.86,5.85 -0.19,0.19 -0.19,0.51 0,0.7l0.17 0.17c0.19,0.19 0.51,0.19 0.7,0l0.5 -0.51c0,0.31 0,2.51 0,2.86 0,0.64 0.52,1.15 1.15,1.15l6.67 0c0.64,0 1.15,-0.51 1.15,-1.15 0,-0.35 0,-2.55 0,-2.86l0.51 0.51c0.19,0.19 0.5,0.19 0.69,0l0.17 -0.17c0.19,-0.19 0.19,-0.51 0,-0.7zm-5.9 4.18l0 0c-0.48,0 -0.87,-0.39 -0.87,-0.88 0,-0.48 0.39,-0.87 0.87,-0.87 0.48,0 0.88,0.39 0.88,0.87 0,0.49 -0.4,0.88 -0.88,0.88zm3.24 -3.15l0 0c0,0.63 -0.51,1.15 -1.14,1.15l-4.1 0c-0.63,0 -1.15,-0.52 -1.15,-1.15 0,-0.2 0,-1.76 0,-1.96 0.24,-0.23 3.06,-3.06 3.2,-3.19 0.11,0.11 3.06,3.06 3.19,3.19 0,0.2 0,1.76 0,1.96z"/>
   </g>
  </g>
 </g>
</svg>
