<?xml version="1.0" encoding="UTF-8"?>
<!DOCTYPE svg PUBLIC "-//W3C//DTD SVG 1.1//EN" "http://www.w3.org/Graphics/SVG/1.1/DTD/svg11.dtd">
<!-- Creator: CorelDRAW 2019 (64 Bit) -->
<svg xmlns="http://www.w3.org/2000/svg" xml:space="preserve" width="210mm" height="297mm" version="1.1" style="shape-rendering:geometricPrecision; text-rendering:geometricPrecision; image-rendering:optimizeQuality; fill-rule:evenodd; clip-rule:evenodd"
viewBox="0 0 21000 29700"
 xmlns:xlink="http://www.w3.org/1999/xlink">
 <defs>
  <style type="text/css">
   <![CDATA[
    .fil1 {fill:#009ADD;fill-rule:nonzero}
    .fil0 {fill:#F4891F;fill-rule:nonzero}
   ]]>
  </style>
 </defs>
 <g id="Camada_x0020_1">
  <metadata id="CorelCorpID_0Corel-Layer"/>
  <g id="_2259077020960">
   <path class="fil0" d="M13620.29 6581.78l-331.66 0c-336.86,0 -666.11,258.9 -666.11,699.82l0 554.07 1663.67 1663.69c0,-234.4 0,-1990.32 0,-2251.42 0,-366.42 -299.48,-666.16 -665.9,-666.16z"/>
   <path class="fil0" d="M10437.29 17375.94c-450.36,0 -815.4,365.42 -815.4,815.63 0,450.48 365.04,815.52 815.4,815.52 450.42,0 815.5,-365.04 815.5,-815.52 0,-450.21 -365.08,-815.63 -815.5,-815.63z"/>
   <g>
    <polygon class="fil0" points="10302.6,11494.14 8838.99,11494.14 8838.99,12957.72 10302.6,12957.72 "/>
    <polygon class="fil0" points="12160.91,12957.72 12160.91,11494.14 10697.23,11494.14 10697.23,12957.72 "/>
    <polygon class="fil0" points="8838.99,13352.46 8838.99,14815.97 10302.6,14815.97 10302.6,13352.46 "/>
    <polygon class="fil0" points="12160.91,13352.46 10697.23,13352.46 10697.23,14815.97 12160.91,14815.97 "/>
   </g>
   <g>
    <g>
     <path class="fil1" d="M18480.21 13693.39c-48.09,-48.1 -7822.77,-7822.7 -7980.31,-7980.24 -245.06,245.25 -7873.88,7873.92 -7979.6,7979.63 -259,258.9 -259,682.79 0,941.77l234.6 234.6c259.02,259.04 682.71,259.04 941.89,0l687.89 -687.89c0,425.37 0,3418.89 0,3899.89 0,861.96 705.28,1567.14 1567.23,1567.14l9096.09 0c862.1,0 1567.28,-705.18 1567.28,-1567.14 0,-481 0,-3475.56 0,-3899.94l687.92 687.94c258.83,259.04 682.89,259.04 941.92,0l234.58 -234.6c258.83,-258.71 259,-682.1 0.51,-941.16zm-8042.92 5691.93l0 0c-659.36,0 -1193.8,-534.26 -1193.8,-1193.75 0,-659.22 534.44,-1193.83 1193.8,-1193.83 659.26,0 1193.84,534.61 1193.84,1193.83 0,659.49 -534.58,1193.75 -1193.84,1193.75zm4421.79 -4300.06l0 0c0,861.96 -705.42,1567.14 -1567.18,1567.14l-5583.82 0c-861.86,0 -1567.05,-705.18 -1567.05,-1567.14 0,-264.45 0,-2394.85 0,-2660.15 323.61,-323.72 4172.46,-4172.82 4358.87,-4359.07 154.85,154.69 4174.72,4174.72 4359.18,4358.89 0,265.24 0,2395.81 0,2660.33z"/>
    </g>
   </g>
  </g>
 </g>
</svg>
