<?xml version="1.0" encoding="UTF-8"?>
<!DOCTYPE svg PUBLIC "-//W3C//DTD SVG 1.1//EN" "http://www.w3.org/Graphics/SVG/1.1/DTD/svg11.dtd">
<!-- Creator: CorelDRAW 2019 (64 Bit) -->
<svg xmlns="http://www.w3.org/2000/svg" xml:space="preserve" width="48.7687mm" height="48.7673mm" version="1.1" style="shape-rendering:geometricPrecision; text-rendering:geometricPrecision; image-rendering:optimizeQuality; fill-rule:evenodd; clip-rule:evenodd"
viewBox="0 0 25799.3 25798.56"
 xmlns:xlink="http://www.w3.org/1999/xlink">
 <defs>
  <style type="text/css">
   <![CDATA[
    .fil1 {fill:#FEFEFE;fill-rule:nonzero}
    .fil0 {fill:#00AD59;fill-rule:nonzero}
   ]]>
  </style>
 </defs>
 <g id="Camada_x0020_1">
  <metadata id="CorelCorpID_0Corel-Layer"/>
  <path class="fil0" d="M12899.47 25798.56c-2257.99,0 -4472.28,-597.2 -6433.86,-1731.3l-5025.79 1731.3 1032.95 -5321.77c-1619.15,-2219.32 -2472.77,-4829.63 -2472.77,-7577.33 0,-7112.8 5786.67,-12899.47 12899.47,-12899.47 7113.54,0 12899.84,5786.67 12899.84,12899.47 0,7112.64 -5786.3,12899.1 -12899.84,12899.1z"/>
  <path class="fil1" d="M8847.86 18816.96l253.98 158.81c1144.41,717.61 2457.85,1096.8 3797.63,1096.8 3955.86,0 7173.64,-3217.78 7173.64,-7173.48 0,-3955.12 -3217.78,-7173.05 -7173.64,-7173.05 -3955.33,0 -7173.11,3217.94 -7173.11,7173.05 0,1609.26 527.06,3134.19 1523.61,4409.38l176.16 225.25 -368.72 1900.01 1790.45 -616.78zm4051.61 2509.53c-1474.89,0 -2921.79,-390.41 -4202.96,-1131.51l-3283.48 1131.51 674.65 -3476.99c-1057.39,-1449.87 -1615.4,-3155.04 -1615.4,-4950.4 0,-4646.75 3780.44,-8426.97 8427.19,-8426.97 4646.96,0 8427.4,3780.22 8427.4,8426.97 0,4646.96 -3780.44,8427.4 -8427.4,8427.4z"/>
  <path class="fil1" d="M8645.19 9661.37c0,0 494.73,-864.25 897.47,-913.55 403.27,-49.62 922.28,-49.62 1062.1,213.88 140.14,263.34 765.32,1794.78 765.32,1794.78 0,0 107.28,263.34 -57.13,518.64 -164.58,255.09 -535.2,625.56 -535.2,625.56 0,0 -205.84,263.29 0,543.24 205.84,279.74 524.94,794.26 1185.63,1453.99 659.31,660.47 1925.93,1130.93 1925.93,1130.93 0,0 181.24,24.65 296.78,-90.51 114.74,-115.32 740.88,-897.26 740.88,-897.26 0,0 200.81,-259.22 534.67,-106.97 333.33,152.3 1777.96,872.66 1777.96,872.66 0,0 169.07,61.58 169.07,316.72 0,255.09 -103.21,879.54 -314.45,1090.61 -211.29,211.29 -828.22,862.03 -1756.11,862.03 -927.73,0 -3136.79,-754.9 -4313.84,-1931.75 -1177.21,-1177.43 -2222.49,-2371.25 -2469.22,-3457.58 -246.89,-1086.7 -213.88,-1577.89 90.14,-2025.43z"/>
 </g>
</svg>
